<svg xmlns="http://www.w3.org/2000/svg" version="1.1" xmlns:xlink="http://www.w3.org/1999/xlink" xmlns:svgjs="http://svgjs.com/svgjs"><defs><linearGradient x1="0" y1="0" x2="0" y2="1" id="SvgjsLinearGradient1000"><stop stop-color="#b9b9b9" offset="0"></stop><stop stop-color="#919191" offset="1"></stop></linearGradient><pattern x="0" y="0" width="10" height="10" patternUnits="userSpaceOnUse" id="SvgjsPattern1001"><rect width="40" height="40" fill="white"></rect><rect width="60" height="2" x="-10" y="0" fill="black"></rect><rect width="60" height="2" x="-10" y="5" fill="black"></rect><rect width="60" height="2" x="-10" y="10" fill="black"></rect></pattern><linearGradient x1="0" y1="0" x2="0" y2="1" id="SvgjsLinearGradient1002"><stop stop-color="#41436a" offset="0"></stop><stop stop-color="#091c4c" offset="1"></stop></linearGradient></defs><rect width="80" height="120" x="0" y="0" fill="#f0f0fa"></rect><circle r="10" cx="45" cy="20" fill="#cb8d79"></circle><polygon points="25,30 65,30 55,70 15,70" fill="black"></polygon><polygon points="25,70 65,70 55,110 15,110" fill="url(#SvgjsLinearGradient1000)"></polygon><rect width="80" height="120" x="90" y="0" fill="#f0f0fa"></rect><circle r="10" cx="135" cy="20" fill="#cb8d79"></circle><polygon points="115,30 155,30 145,70 105,70" fill="url(#SvgjsPattern1001)"></polygon><polygon points="115,70 155,70 145,110 105,110" fill="black"></polygon><rect width="80" height="120" x="180" y="0" fill="#f0f0fa"></rect><circle r="10" cx="225" cy="20" fill="#f7aa72"></circle><polygon points="205,30 245,30 235,70 195,70" fill="black"></polygon><polygon points="205,70 245,70 235,110 195,110" fill="#1e1e1e"></polygon><rect width="80" height="120" x="270" y="0" fill="#f0f0fa"></rect><circle r="10" cx="315" cy="20" fill="#f8c3b4"></circle><polygon points="295,30 335,30 325,70 285,70" fill="white"></polygon><polygon points="295,70 335,70 325,110 285,110" fill="url(#SvgjsLinearGradient1002)"></polygon></svg>