<svg xmlns="http://www.w3.org/2000/svg" version="1.1" xmlns:xlink="http://www.w3.org/1999/xlink" xmlns:svgjs="http://svgjs.com/svgjs"><defs><linearGradient x1="0" y1="0" x2="0" y2="1" id="SvgjsLinearGradient1000"><stop stop-color="#b9b9b9" offset="0"></stop><stop stop-color="#919191" offset="1"></stop></linearGradient><pattern x="0" y="0" width="10" height="10" patternUnits="userSpaceOnUse" id="SvgjsPattern1001"><rect width="40" height="40" fill="white"></rect><rect width="60" height="2" x="-10" y="0" fill="black"></rect><rect width="60" height="2" x="-10" y="5" fill="black"></rect><rect width="60" height="2" x="-10" y="10" fill="black"></rect></pattern><linearGradient x1="0" y1="0" x2="0" y2="1" id="SvgjsLinearGradient1002"><stop stop-color="#41436a" offset="0"></stop><stop stop-color="#091c4c" offset="1"></stop></linearGradient><pattern x="0" y="0" width="10" height="10" patternUnits="userSpaceOnUse" id="SvgjsPattern1003"><rect width="40" height="40" fill="black"></rect><rect width="60" height="2" x="-10" y="0" fill="hsl(345, 70%, 30%)"></rect><rect width="60" height="2" x="-10" y="5" fill="hsl(345, 70%, 30%)"></rect><rect width="60" height="2" x="-10" y="10" fill="hsl(345, 70%, 30%)"></rect></pattern><pattern x="0" y="0" width="80" height="80" patternUnits="userSpaceOnUse" id="SvgjsPattern1004"><rect width="80" height="80" fill="black"></rect><rect width="30" height="2" x="40" y="40" fill="rgba(100,20,255, 1)"></rect><rect width="30" height="2" x="39" y="44" fill="rgba(100,20,255, 1)"></rect><rect width="30" height="2" x="38" y="48" fill="rgba(100,20,255, 1)"></rect></pattern><linearGradient x1="0" y1="0" x2="0" y2="1" id="SvgjsLinearGradient1005"><stop stop-color="#474747" offset="0"></stop><stop stop-color="#262626" offset="1"></stop></linearGradient><pattern x="0" y="0" width="32" height="64" patternUnits="userSpaceOnUse" id="SvgjsPattern1006"><rect width="40" height="64" fill="#bf4040"></rect><line x1="4" y1="-10" x2="-16" y2="70" stroke-width="4" stroke="rgba(30, 30, 30, 0.5)"></line><line x1="12" y1="-10" x2="-8" y2="70" stroke-width="1" stroke="rgba(30, 30, 30, 0.5)"></line><line x1="20" y1="-10" x2="0" y2="70" stroke-width="4" stroke="rgba(30, 30, 30, 0.5)"></line><line x1="28" y1="-10" x2="8" y2="70" stroke-width="1" stroke="rgba(30, 30, 30, 0.5)"></line><line x1="36" y1="-10" x2="16" y2="70" stroke-width="4" stroke="rgba(30, 30, 30, 0.5)"></line><line x1="44" y1="-10" x2="24" y2="70" stroke-width="1" stroke="rgba(30, 30, 30, 0.5)"></line><line x1="52" y1="-10" x2="32" y2="70" stroke-width="4" stroke="rgba(30, 30, 30, 0.5)"></line><line x1="60" y1="-10" x2="40" y2="70" stroke-width="1" stroke="rgba(30, 30, 30, 0.5)"></line><line x1="68" y1="-10" x2="48" y2="70" stroke-width="4" stroke="rgba(30, 30, 30, 0.5)"></line><line x1="76" y1="-10" x2="56" y2="70" stroke-width="1" stroke="rgba(30, 30, 30, 0.5)"></line><line x1="84" y1="-10" x2="64" y2="70" stroke-width="4" stroke="rgba(30, 30, 30, 0.5)"></line><line x1="92" y1="-10" x2="72" y2="70" stroke-width="1" stroke="rgba(30, 30, 30, 0.5)"></line><line x1="-10" y1="0" x2="70" y2="0" stroke-width="4" stroke="rgba(30, 30, 30, 0.5)"></line><line x1="-10" y1="8" x2="70" y2="8" stroke-width="1" stroke="rgba(30, 30, 30, 0.5)"></line><line x1="-10" y1="16" x2="70" y2="16" stroke-width="4" stroke="rgba(30, 30, 30, 0.5)"></line><line x1="-10" y1="24" x2="70" y2="24" stroke-width="1" stroke="rgba(30, 30, 30, 0.5)"></line><line x1="-10" y1="32" x2="70" y2="32" stroke-width="4" stroke="rgba(30, 30, 30, 0.5)"></line><line x1="-10" y1="40" x2="70" y2="40" stroke-width="1" stroke="rgba(30, 30, 30, 0.5)"></line><line x1="-10" y1="48" x2="70" y2="48" stroke-width="4" stroke="rgba(30, 30, 30, 0.5)"></line><line x1="-10" y1="56" x2="70" y2="56" stroke-width="1" stroke="rgba(30, 30, 30, 0.5)"></line><line x1="-10" y1="64" x2="70" y2="64" stroke-width="4" stroke="rgba(30, 30, 30, 0.5)"></line><line x1="-10" y1="72" x2="70" y2="72" stroke-width="1" stroke="rgba(30, 30, 30, 0.5)"></line><line x1="-10" y1="80" x2="70" y2="80" stroke-width="4" stroke="rgba(30, 30, 30, 0.5)"></line></pattern><linearGradient x1="0" y1="0" x2="0" y2="1" id="SvgjsLinearGradient1007"><stop stop-color="#3b3b3b" offset="0"></stop><stop stop-color="#1b1b1b" offset="1"></stop></linearGradient></defs><rect width="80" height="120" x="0" y="0" fill="#f0f0fa"></rect><circle r="10" cx="45" cy="20" fill="#f8c3b4"></circle><polygon points="25,30 65,30 55,70 15,70" fill="black"></polygon><polygon points="25,70 65,70 55,110 15,110" fill="url(#SvgjsLinearGradient1000)"></polygon><rect width="80" height="120" x="90" y="0" fill="#f0f0fa"></rect><circle r="10" cx="135" cy="20" fill="#9c5f44"></circle><polygon points="115,30 155,30 145,70 105,70" fill="url(#SvgjsPattern1001)"></polygon><polygon points="115,70 155,70 145,110 105,110" fill="black"></polygon><rect width="80" height="120" x="180" y="0" fill="#f0f0fa"></rect><circle r="10" cx="225" cy="20" fill="#f8c3b4"></circle><polygon points="205,30 245,30 235,70 195,70" fill="black"></polygon><polygon points="205,70 245,70 235,110 195,110" fill="#1e1e1e"></polygon><rect width="80" height="120" x="270" y="0" fill="#f0f0fa"></rect><circle r="10" cx="315" cy="20" fill="#f8c3b4"></circle><polygon points="295,30 335,30 325,70 285,70" fill="white"></polygon><polygon points="295,70 335,70 325,110 285,110" fill="url(#SvgjsLinearGradient1002)"></polygon><rect width="80" height="120" x="0" y="0" fill="#f0f0fa"></rect><circle r="10" cx="45" cy="20" fill="#cb8d79"></circle><polygon points="25,30 65,30 55,70 15,70" fill="url(#SvgjsPattern1003)"></polygon><polygon points="25,70 65,70 55,110 15,110" fill="black"></polygon><rect width="80" height="120" x="90" y="0" fill="#f0f0fa"></rect><circle r="10" cx="135" cy="20" fill="#9c5f44"></circle><polygon points="115,30 155,30 145,70 105,70" fill="url(#SvgjsPattern1004)"></polygon><polygon points="115,70 155,70 145,110 105,110" fill="url(#SvgjsLinearGradient1005)"></polygon><line x1="110" y1="105" x2="145" y2="105" stroke-dasharray="2,2" stroke-width="1" stroke="rgba(100,20,255, 1)"></line><rect width="80" height="120" x="180" y="0" fill="#f0f0fa"></rect><circle r="10" cx="225" cy="20" fill="#cda184"></circle><polygon points="205,30 245,30 235,70 195,70" fill="black"></polygon><polygon points="205,70 245,70 235,110 195,110" fill="url(#SvgjsPattern1006)"></polygon><rect width="80" height="120" x="270" y="0" fill="#f0f0fa"></rect><circle r="10" cx="315" cy="20" fill="#f8c3b4"></circle><polygon points="295,30 335,30 325,70 285,70" fill="url(#SvgjsLinearGradient1007)"></polygon><polygon points="295,70 335,70 325,110 285,110" fill="#8a4268"></polygon></svg>