<svg xmlns="http://www.w3.org/2000/svg" version="1.1" xmlns:xlink="http://www.w3.org/1999/xlink" xmlns:svgjs="http://svgjs.com/svgjs"><defs><linearGradient x1="0" y1="0" x2="0" y2="1" id="SvgjsLinearGradient1000"><stop stop-color="#b9b9b9" offset="0"></stop><stop stop-color="#919191" offset="1"></stop></linearGradient><pattern x="0" y="0" width="10" height="10" patternUnits="userSpaceOnUse" id="SvgjsPattern1001"><rect width="40" height="40" fill="white"></rect><rect width="60" height="2" x="-10" y="0" fill="black"></rect><rect width="60" height="2" x="-10" y="5" fill="black"></rect><rect width="60" height="2" x="-10" y="10" fill="black"></rect></pattern><linearGradient x1="0" y1="0" x2="0" y2="1" id="SvgjsLinearGradient1002"><stop stop-color="#41436a" offset="0"></stop><stop stop-color="#091c4c" offset="1"></stop></linearGradient><pattern x="0" y="0" width="10" height="10" patternUnits="userSpaceOnUse" id="SvgjsPattern1003"><rect width="40" height="40" fill="black"></rect><rect width="60" height="2" x="-10" y="0" fill="hsl(345, 70%, 30%)"></rect><rect width="60" height="2" x="-10" y="5" fill="hsl(345, 70%, 30%)"></rect><rect width="60" height="2" x="-10" y="10" fill="hsl(345, 70%, 30%)"></rect></pattern><pattern x="0" y="0" width="80" height="80" patternUnits="userSpaceOnUse" id="SvgjsPattern1004"><rect width="80" height="80" fill="black"></rect><rect width="30" height="2" x="40" y="40" fill="#6414ff"></rect><rect width="30" height="2" x="39" y="44" fill="#6414ff"></rect><rect width="30" height="2" x="38" y="48" fill="#6414ff"></rect></pattern><linearGradient x1="0" y1="0" x2="0" y2="1" id="SvgjsLinearGradient1005"><stop stop-color="#474747" offset="0"></stop><stop stop-color="#262626" offset="1"></stop></linearGradient><pattern x="0" y="0" width="32" height="64" patternUnits="userSpaceOnUse" id="SvgjsPattern1006"><rect width="40" height="64" fill="#bf4040"></rect><line x1="4" y1="-10" x2="-16" y2="70" stroke-opacity="0.5" stroke-width="4" stroke="#1e1e1e"></line><line x1="12" y1="-10" x2="-8" y2="70" stroke-opacity="0.5" stroke-width="1" stroke="#1e1e1e"></line><line x1="20" y1="-10" x2="0" y2="70" stroke-opacity="0.5" stroke-width="4" stroke="#1e1e1e"></line><line x1="28" y1="-10" x2="8" y2="70" stroke-opacity="0.5" stroke-width="1" stroke="#1e1e1e"></line><line x1="36" y1="-10" x2="16" y2="70" stroke-opacity="0.5" stroke-width="4" stroke="#1e1e1e"></line><line x1="44" y1="-10" x2="24" y2="70" stroke-opacity="0.5" stroke-width="1" stroke="#1e1e1e"></line><line x1="52" y1="-10" x2="32" y2="70" stroke-opacity="0.5" stroke-width="4" stroke="#1e1e1e"></line><line x1="60" y1="-10" x2="40" y2="70" stroke-opacity="0.5" stroke-width="1" stroke="#1e1e1e"></line><line x1="68" y1="-10" x2="48" y2="70" stroke-opacity="0.5" stroke-width="4" stroke="#1e1e1e"></line><line x1="76" y1="-10" x2="56" y2="70" stroke-opacity="0.5" stroke-width="1" stroke="#1e1e1e"></line><line x1="84" y1="-10" x2="64" y2="70" stroke-opacity="0.5" stroke-width="4" stroke="#1e1e1e"></line><line x1="92" y1="-10" x2="72" y2="70" stroke-opacity="0.5" stroke-width="1" stroke="#1e1e1e"></line><line x1="-10" y1="0" x2="70" y2="0" stroke-opacity="0.5" stroke-width="4" stroke="#1e1e1e"></line><line x1="-10" y1="8" x2="70" y2="8" stroke-opacity="0.5" stroke-width="1" stroke="#1e1e1e"></line><line x1="-10" y1="16" x2="70" y2="16" stroke-opacity="0.5" stroke-width="4" stroke="#1e1e1e"></line><line x1="-10" y1="24" x2="70" y2="24" stroke-opacity="0.5" stroke-width="1" stroke="#1e1e1e"></line><line x1="-10" y1="32" x2="70" y2="32" stroke-opacity="0.5" stroke-width="4" stroke="#1e1e1e"></line><line x1="-10" y1="40" x2="70" y2="40" stroke-opacity="0.5" stroke-width="1" stroke="#1e1e1e"></line><line x1="-10" y1="48" x2="70" y2="48" stroke-opacity="0.5" stroke-width="4" stroke="#1e1e1e"></line><line x1="-10" y1="56" x2="70" y2="56" stroke-opacity="0.5" stroke-width="1" stroke="#1e1e1e"></line><line x1="-10" y1="64" x2="70" y2="64" stroke-opacity="0.5" stroke-width="4" stroke="#1e1e1e"></line><line x1="-10" y1="72" x2="70" y2="72" stroke-opacity="0.5" stroke-width="1" stroke="#1e1e1e"></line><line x1="-10" y1="80" x2="70" y2="80" stroke-opacity="0.5" stroke-width="4" stroke="#1e1e1e"></line></pattern><linearGradient x1="0" y1="0" x2="0" y2="1" id="SvgjsLinearGradient1007"><stop stop-color="#3b3b3b" offset="0"></stop><stop stop-color="#1b1b1b" offset="1"></stop></linearGradient><pattern x="0" y="0" width="80" height="80" patternUnits="userSpaceOnUse" id="SvgjsPattern1008"><rect width="80" height="80" fill="#cfff33"></rect><rect width="30" height="2" x="40" y="40" fill="black"></rect><rect width="30" height="2" x="39" y="44" fill="black"></rect><rect width="30" height="2" x="38" y="48" fill="black"></rect></pattern><pattern x="0" y="0" width="60" height="60" patternUnits="userSpaceOnUse" id="SvgjsPattern1009"><rect width="60" height="60" fill="#8000ff"></rect><rect width="10" height="15" x="0" y="0" fill="#000000" opacity="0.6"></rect><rect width="20" height="20" x="10" y="15" fill="#ffffdc" opacity="0.3"></rect><rect width="9" height="9" x="20" y="0" fill="#ffffff" opacity="0.4"></rect><rect width="16" height="12" x="43" y="45" fill="#ffdcff" opacity="0.3"></rect><rect width="15" height="20" x="40" y="30" fill="#dcffe1" opacity="0.3"></rect><rect width="15" height="5" x="10" y="10" fill="#000000" opacity="0.4"></rect><rect width="13" height="15" x="30" y="35" fill="#000000" opacity="0.4"></rect><rect width="15" height="5" x="20" y="35" fill="#fff0f0" opacity="0.4"></rect><rect width="5" height="8" x="15" y="45" fill="#fff0ff" opacity="0.4"></rect><rect width="8" height="15" x="25" y="50" fill="#140000" opacity="0.4"></rect><rect width="10" height="15" x="5" y="50" fill="#001400" opacity="0.4"></rect><rect width="15" height="10" x="0" y="35" fill="#000014" opacity="0.4"></rect><rect width="15" height="10" x="-5" y="20" fill="#ffff00" opacity="0.4"></rect><rect width="15" height="10" x="55" y="20" fill="#ffffdc" opacity="0.4"></rect></pattern><linearGradient x1="0" y1="0" x2="0" y2="1" id="SvgjsLinearGradient1010"><stop stop-color="#525252" offset="0"></stop><stop stop-color="#303030" offset="1"></stop></linearGradient><pattern x="0" y="0" width="80" height="80" patternUnits="userSpaceOnUse" id="SvgjsPattern1011"><rect width="80" height="80" fill="black"></rect><circle r="5" cx="45" cy="45" stroke="#00ffff" fill="none"></circle><circle r="10" cx="45" cy="45" stroke="#00ffff" fill="none"></circle><circle r="15" cx="45" cy="45" stroke="#00ffff" fill="none"></circle><circle r="20" cx="45" cy="45" stroke="#00ffff" fill="none"></circle><circle r="25" cx="45" cy="45" stroke="#00ffff" fill="none"></circle><circle r="30" cx="45" cy="45" stroke="#00ffff" fill="none"></circle><circle r="35" cx="45" cy="45" stroke="#00ffff" fill="none"></circle></pattern><pattern x="0" y="0" width="10" height="10" patternUnits="userSpaceOnUse" id="SvgjsPattern1012"><rect width="40" height="40" fill="#ba87a2"></rect><rect width="60" height="2" x="-10" y="0" fill-opacity="0.2" fill="#ffffff"></rect><rect width="60" height="2" x="-10" y="5" fill-opacity="0.2" fill="#ffffff"></rect><rect width="60" height="2" x="-10" y="10" fill-opacity="0.2" fill="#ffffff"></rect></pattern><pattern x="0" y="0" width="32" height="64" patternUnits="userSpaceOnUse" id="SvgjsPattern1013"><rect width="40" height="64" fill="#87adba"></rect><line x1="4" y1="-10" x2="-16" y2="70" stroke-opacity="0.5" stroke-width="4" stroke="#ffffff"></line><line x1="12" y1="-10" x2="-8" y2="70" stroke-opacity="0.5" stroke-width="1" stroke="#ffffff"></line><line x1="20" y1="-10" x2="0" y2="70" stroke-opacity="0.5" stroke-width="4" stroke="#ffffff"></line><line x1="28" y1="-10" x2="8" y2="70" stroke-opacity="0.5" stroke-width="1" stroke="#ffffff"></line><line x1="36" y1="-10" x2="16" y2="70" stroke-opacity="0.5" stroke-width="4" stroke="#ffffff"></line><line x1="44" y1="-10" x2="24" y2="70" stroke-opacity="0.5" stroke-width="1" stroke="#ffffff"></line><line x1="52" y1="-10" x2="32" y2="70" stroke-opacity="0.5" stroke-width="4" stroke="#ffffff"></line><line x1="60" y1="-10" x2="40" y2="70" stroke-opacity="0.5" stroke-width="1" stroke="#ffffff"></line><line x1="68" y1="-10" x2="48" y2="70" stroke-opacity="0.5" stroke-width="4" stroke="#ffffff"></line><line x1="76" y1="-10" x2="56" y2="70" stroke-opacity="0.5" stroke-width="1" stroke="#ffffff"></line><line x1="84" y1="-10" x2="64" y2="70" stroke-opacity="0.5" stroke-width="4" stroke="#ffffff"></line><line x1="92" y1="-10" x2="72" y2="70" stroke-opacity="0.5" stroke-width="1" stroke="#ffffff"></line><line x1="-10" y1="0" x2="70" y2="0" stroke-opacity="0.5" stroke-width="4" stroke="#ffffff"></line><line x1="-10" y1="8" x2="70" y2="8" stroke-opacity="0.5" stroke-width="1" stroke="#ffffff"></line><line x1="-10" y1="16" x2="70" y2="16" stroke-opacity="0.5" stroke-width="4" stroke="#ffffff"></line><line x1="-10" y1="24" x2="70" y2="24" stroke-opacity="0.5" stroke-width="1" stroke="#ffffff"></line><line x1="-10" y1="32" x2="70" y2="32" stroke-opacity="0.5" stroke-width="4" stroke="#ffffff"></line><line x1="-10" y1="40" x2="70" y2="40" stroke-opacity="0.5" stroke-width="1" stroke="#ffffff"></line><line x1="-10" y1="48" x2="70" y2="48" stroke-opacity="0.5" stroke-width="4" stroke="#ffffff"></line><line x1="-10" y1="56" x2="70" y2="56" stroke-opacity="0.5" stroke-width="1" stroke="#ffffff"></line><line x1="-10" y1="64" x2="70" y2="64" stroke-opacity="0.5" stroke-width="4" stroke="#ffffff"></line><line x1="-10" y1="72" x2="70" y2="72" stroke-opacity="0.5" stroke-width="1" stroke="#ffffff"></line><line x1="-10" y1="80" x2="70" y2="80" stroke-opacity="0.5" stroke-width="4" stroke="#ffffff"></line></pattern><linearGradient x1="0" y1="0" x2="0" y2="1" id="SvgjsLinearGradient1014"><stop stop-color="#5e6993" offset="0"></stop><stop stop-color="#1a386c" offset="1"></stop></linearGradient><pattern x="0" y="0" width="10" height="10" patternUnits="userSpaceOnUse" id="SvgjsPattern1015"><rect width="40" height="40" fill="white"></rect><rect width="60" height="2" x="-10" y="0" fill="#40bf55"></rect><rect width="60" height="2" x="-10" y="5" fill="#40bf55"></rect><rect width="60" height="2" x="-10" y="10" fill="#40bf55"></rect></pattern><linearGradient x1="0" y1="0" x2="0" y2="1" id="SvgjsLinearGradient1016"><stop stop-color="#f1f1f1" offset="0"></stop><stop stop-color="#c6c6c6" offset="1"></stop></linearGradient><pattern x="0" y="0" width="32" height="32" patternUnits="userSpaceOnUse" id="SvgjsPattern1017"><rect width="40" height="40" fill="#28288c"></rect><line x1="4" y1="-10" x2="-16" y2="70" stroke-width="2" stroke="white"></line><line x1="12" y1="-10" x2="-8" y2="70" stroke-width="2" stroke="white"></line><line x1="20" y1="-10" x2="0" y2="70" stroke-width="2" stroke="white"></line><line x1="28" y1="-10" x2="8" y2="70" stroke-width="2" stroke="white"></line><line x1="36" y1="-10" x2="16" y2="70" stroke-width="2" stroke="white"></line><line x1="44" y1="-10" x2="24" y2="70" stroke-width="2" stroke="white"></line><line x1="52" y1="-10" x2="32" y2="70" stroke-width="2" stroke="white"></line></pattern><linearGradient x1="0" y1="0" x2="0" y2="1" id="SvgjsLinearGradient1018"><stop stop-color="#545c85" offset="0"></stop><stop stop-color="#162e61" offset="1"></stop></linearGradient><pattern x="0" y="0" width="10" height="10" patternUnits="userSpaceOnUse" id="SvgjsPattern1019"><rect width="40" height="40" fill="white"></rect><rect width="60" height="2" x="-10" y="0" fill="#4ccce6"></rect><rect width="60" height="2" x="-10" y="5" fill="#4ccce6"></rect><rect width="60" height="2" x="-10" y="10" fill="#4ccce6"></rect></pattern><pattern x="0" y="0" width="10" height="20" patternUnits="userSpaceOnUse" id="SvgjsPattern1020"><rect width="40" height="40" fill="#eee2d3"></rect><rect width="60" height="4" x="-10" y="0" fill="#f0e9e6"></rect><rect width="60" height="4" x="-10" y="10" fill="#f0e9e6"></rect><rect width="60" height="4" x="-10" y="20" fill="#f0e9e6"></rect></pattern><linearGradient x1="0" y1="0" x2="0" y2="1" id="SvgjsLinearGradient1021"><stop stop-color="#b3d8ff" offset="0"></stop><stop stop-color="#4d8bc2" offset="1"></stop></linearGradient><pattern x="0" y="0" width="18" height="20" patternUnits="userSpaceOnUse" id="SvgjsPattern1022"><rect width="20" height="20" fill="white"></rect><line x1="-10" y1="-5" x2="10" y2="5" stroke-width="4" stroke="[object Object]"></line><line x1="8" y1="5" x2="28" y2="-5" stroke-width="4" stroke="[object Object]"></line><line x1="-10" y1="5" x2="10" y2="15" stroke-width="4" stroke="[object Object]"></line><line x1="8" y1="15" x2="28" y2="5" stroke-width="4" stroke="[object Object]"></line><line x1="-10" y1="15" x2="10" y2="25" stroke-width="4" stroke="[object Object]"></line><line x1="8" y1="25" x2="28" y2="15" stroke-width="4" stroke="[object Object]"></line></pattern></defs><rect width="80" height="120" x="0" y="0" fill="#f0f0fa"></rect><circle r="10" cx="45" cy="20" fill="#cb8d79"></circle><polygon points="25,30 65,30 55,70 15,70" fill="black"></polygon><polygon points="25,70 65,70 55,110 15,110" fill="url(#SvgjsLinearGradient1000)"></polygon><rect width="80" height="120" x="90" y="0" fill="#f0f0fa"></rect><circle r="10" cx="135" cy="20" fill="#f8c3b4"></circle><polygon points="115,30 155,30 145,70 105,70" fill="url(#SvgjsPattern1001)"></polygon><polygon points="115,70 155,70 145,110 105,110" fill="black"></polygon><rect width="80" height="120" x="180" y="0" fill="#f0f0fa"></rect><circle r="10" cx="225" cy="20" fill="#f8c3b4"></circle><polygon points="205,30 245,30 235,70 195,70" fill="black"></polygon><polygon points="205,70 245,70 235,110 195,110" fill="#1e1e1e"></polygon><rect width="80" height="120" x="270" y="0" fill="#f0f0fa"></rect><circle r="10" cx="315" cy="20" fill="#cda184"></circle><polygon points="295,30 335,30 325,70 285,70" fill="white"></polygon><polygon points="295,70 335,70 325,110 285,110" fill="url(#SvgjsLinearGradient1002)"></polygon><rect width="80" height="120" x="0" y="0" fill="#f0f0fa"></rect><circle r="10" cx="45" cy="20" fill="#cda184"></circle><polygon points="25,30 65,30 55,70 15,70" fill="url(#SvgjsPattern1003)"></polygon><polygon points="25,70 65,70 55,110 15,110" fill="black"></polygon><rect width="80" height="120" x="90" y="0" fill="#f0f0fa"></rect><circle r="10" cx="135" cy="20" fill="#f8c3b4"></circle><polygon points="115,30 155,30 145,70 105,70" fill="url(#SvgjsPattern1004)"></polygon><polygon points="115,70 155,70 145,110 105,110" fill="url(#SvgjsLinearGradient1005)"></polygon><line x1="110" y1="105" x2="145" y2="105" stroke-dasharray="2,2" stroke-width="1" stroke="#6414ff"></line><rect width="80" height="120" x="180" y="0" fill="#f0f0fa"></rect><circle r="10" cx="225" cy="20" fill="#cb8d79"></circle><polygon points="205,30 245,30 235,70 195,70" fill="black"></polygon><polygon points="205,70 245,70 235,110 195,110" fill="url(#SvgjsPattern1006)"></polygon><rect width="80" height="120" x="270" y="0" fill="#f0f0fa"></rect><circle r="10" cx="315" cy="20" fill="#9c5f44"></circle><polygon points="295,30 335,30 325,70 285,70" fill="url(#SvgjsLinearGradient1007)"></polygon><polygon points="295,70 335,70 325,110 285,110" fill="#8a4268"></polygon><rect width="80" height="120" x="0" y="0" fill="#f0f0fa"></rect><circle r="10" cx="45" cy="20" fill="#cda184"></circle><polygon points="25,30 65,30 55,70 15,70" fill="url(#SvgjsPattern1008)"></polygon><polygon points="25,70 65,70 55,110 15,110" fill="black"></polygon><line x1="20" y1="105" x2="55" y2="105" stroke-dasharray="2,2" stroke-width="1" stroke="#cfff33"></line><rect width="80" height="120" x="90" y="0" fill="#f0f0fa"></rect><circle r="10" cx="135" cy="20" fill="#cda184"></circle><polygon points="115,30 155,30 145,70 105,70" fill="url(#SvgjsPattern1009)"></polygon><polygon points="115,70 155,70 145,110 105,110" fill="url(#SvgjsLinearGradient1010)"></polygon><rect width="80" height="120" x="180" y="0" fill="#f0f0fa"></rect><circle r="10" cx="225" cy="20" fill="#f8c3b4"></circle><polygon points="205,30 245,30 235,70 195,70" fill="#ff33b1"></polygon><polygon points="205,70 245,70 235,110 195,110" fill="white"></polygon><rect width="80" height="120" x="270" y="0" fill="#f0f0fa"></rect><circle r="10" cx="315" cy="20" fill="#f8c3b4"></circle><polygon points="295,30 335,30 325,70 285,70" fill="#33ffff"></polygon><polygon points="295,70 335,70 325,110 285,110" fill="url(#SvgjsPattern1011)"></polygon><rect width="80" height="120" x="0" y="0" fill="#f0f0fa"></rect><circle r="10" cx="45" cy="20" fill="#cda184"></circle><polygon points="25,30 65,30 55,70 15,70" fill="url(#SvgjsPattern1012)"></polygon><polygon points="25,70 65,70 55,110 15,110" fill="#3c3c3c"></polygon><rect width="80" height="120" x="90" y="0" fill="#f0f0fa"></rect><circle r="10" cx="135" cy="20" fill="#cb8d79"></circle><polygon points="115,30 155,30 145,70 105,70" fill="#bab087"></polygon><polygon points="115,70 155,70 145,110 105,110" fill="#51656c"></polygon><rect width="80" height="120" x="180" y="0" fill="#f0f0fa"></rect><circle r="10" cx="225" cy="20" fill="#9c5f44"></circle><polygon points="205,30 245,30 235,70 195,70" fill="#fffaf0"></polygon><polygon points="205,70 245,70 235,110 195,110" fill="#8a7b42"></polygon><rect width="80" height="120" x="270" y="0" fill="#f0f0fa"></rect><circle r="10" cx="315" cy="20" fill="#cda184"></circle><polygon points="295,30 335,30 325,70 285,70" fill="url(#SvgjsPattern1013)"></polygon><polygon points="295,70 335,70 325,110 285,110" fill="url(#SvgjsLinearGradient1014)"></polygon><line x1="290" y1="105" x2="325" y2="105" stroke-dasharray="2,2" stroke-width="1" stroke="#be8200"></line><rect width="80" height="120" x="0" y="0" fill="#f0f0fa"></rect><circle r="10" cx="45" cy="20" fill="#7e5234"></circle><polygon points="25,30 65,30 55,70 15,70" fill="#409dbf"></polygon><polygon points="25,70 65,70 55,110 15,110" fill="#661919"></polygon><rect width="80" height="120" x="90" y="0" fill="#f0f0fa"></rect><circle r="10" cx="135" cy="20" fill="#9c5f44"></circle><polygon points="115,30 155,30 145,70 105,70" fill="#bf4040"></polygon><polygon points="115,70 155,70 145,110 105,110" fill="#407fbf"></polygon><polygon points="123,40 145,40 142,50 120,50" fill="white"></polygon><rect width="80" height="120" x="180" y="0" fill="#f0f0fa"></rect><circle r="10" cx="225" cy="20" fill="#cda184"></circle><polygon points="205,30 245,30 235,70 195,70" fill="url(#SvgjsPattern1015)"></polygon><polygon points="205,70 245,70 235,110 195,110" fill="#323278"></polygon><rect width="80" height="120" x="270" y="0" fill="#f0f0fa"></rect><circle r="10" cx="315" cy="20" fill="#7e5234"></circle><polygon points="295,30 335,30 325,70 285,70" fill="#195266"></polygon><polygon points="295,70 335,70 325,110 285,110" fill="url(#SvgjsLinearGradient1016)"></polygon><rect width="80" height="120" x="0" y="0" fill="#f0f0fa"></rect><circle r="10" cx="45" cy="20" fill="#f7aa72"></circle><polygon points="25,30 65,30 55,70 15,70" fill="#f2bd0d"></polygon><polygon points="25,70 65,70 55,110 15,110" fill="url(#SvgjsPattern1017)"></polygon><rect width="80" height="120" x="90" y="0" fill="#f0f0fa"></rect><circle r="10" cx="135" cy="20" fill="#7e5234"></circle><polygon points="115,30 155,30 145,70 105,70" fill="#f2330d"></polygon><polygon points="115,70 155,70 145,110 105,110" fill="#fffaf0"></polygon><rect width="80" height="120" x="180" y="0" fill="#f0f0fa"></rect><circle r="10" cx="225" cy="20" fill="#f8c3b4"></circle><polygon points="205,30 245,30 235,70 195,70" fill="#4ccce6"></polygon><polygon points="205,70 245,70 235,110 195,110" fill="url(#SvgjsLinearGradient1018)"></polygon><polygon points="213,40 235,40 232,50 210,50" fill="url(#SvgjsPattern1019)"></polygon><line x1="200" y1="105" x2="235" y2="105" stroke-dasharray="2,2" stroke-width="1" stroke="#0082be"></line><rect width="80" height="120" x="270" y="0" fill="#f0f0fa"></rect><circle r="10" cx="315" cy="20" fill="#f7aa72"></circle><polygon points="295,30 335,30 325,70 285,70" fill="#e6664c"></polygon><polygon points="295,70 335,70 325,110 285,110" fill="#4ca6e6"></polygon><rect width="80" height="120" x="0" y="0" fill="#f0f0fa"></rect><circle r="10" cx="45" cy="20" fill="#7e5234"></circle><polygon points="25,30 65,30 55,70 15,70" fill="#d3eee5"></polygon><polygon points="25,70 65,70 55,110 15,110" fill="darkgrey"></polygon><rect width="80" height="120" x="90" y="0" fill="#f0f0fa"></rect><circle r="10" cx="135" cy="20" fill="#cb8d79"></circle><polygon points="115,30 155,30 145,70 105,70" fill="url(#SvgjsPattern1020)"></polygon><polygon points="115,70 155,70 145,110 105,110" fill="url(#SvgjsLinearGradient1021)"></polygon><line x1="110" y1="105" x2="145" y2="105" stroke-dasharray="2,2" stroke-width="1" stroke="#f0d400"></line><rect width="80" height="120" x="180" y="0" fill="#f0f0fa"></rect><circle r="10" cx="225" cy="20" fill="#f7aa72"></circle><polygon points="205,30 245,30 235,70 195,70" fill="#eed3ea"></polygon><polygon points="205,70 245,70 235,110 195,110" fill="#9298b0"></polygon><rect width="80" height="120" x="270" y="0" fill="#f0f0fa"></rect><circle r="10" cx="315" cy="20" fill="#f8c3b4"></circle><polygon points="295,30 335,30 325,70 285,70" fill="#d3d9ee"></polygon><polygon points="295,70 335,70 325,110 285,110" fill="url(#SvgjsPattern1022)"></polygon></svg>