<svg xmlns="http://www.w3.org/2000/svg" version="1.1" xmlns:xlink="http://www.w3.org/1999/xlink" xmlns:svgjs="http://svgjs.com/svgjs"><defs><linearGradient x1="0" y1="0" x2="0" y2="1" id="SvgjsLinearGradient1000"><stop stop-color="#b9b9b9" offset="0"></stop><stop stop-color="#919191" offset="1"></stop></linearGradient><pattern x="0" y="0" width="10" height="10" patternUnits="userSpaceOnUse" id="SvgjsPattern1001"><rect width="40" height="40" fill="white"></rect><rect width="60" height="2" x="-10" y="0" fill="black"></rect><rect width="60" height="2" x="-10" y="5" fill="black"></rect><rect width="60" height="2" x="-10" y="10" fill="black"></rect></pattern><linearGradient x1="0" y1="0" x2="0" y2="1" id="SvgjsLinearGradient1002"><stop stop-color="#41436a" offset="0"></stop><stop stop-color="#091c4c" offset="1"></stop></linearGradient><pattern x="0" y="0" width="10" height="10" patternUnits="userSpaceOnUse" id="SvgjsPattern1003"><rect width="40" height="40" fill="black"></rect><rect width="60" height="2" x="-10" y="0" fill="hsl(345, 70%, 30%)"></rect><rect width="60" height="2" x="-10" y="5" fill="hsl(345, 70%, 30%)"></rect><rect width="60" height="2" x="-10" y="10" fill="hsl(345, 70%, 30%)"></rect></pattern><pattern x="0" y="0" width="80" height="80" patternUnits="userSpaceOnUse" id="SvgjsPattern1004"><rect width="80" height="80" fill="black"></rect><rect width="30" height="2" x="40" y="40" fill="#6414ff"></rect><rect width="30" height="2" x="39" y="44" fill="#6414ff"></rect><rect width="30" height="2" x="38" y="48" fill="#6414ff"></rect></pattern><linearGradient x1="0" y1="0" x2="0" y2="1" id="SvgjsLinearGradient1005"><stop stop-color="#474747" offset="0"></stop><stop stop-color="#262626" offset="1"></stop></linearGradient><pattern x="0" y="0" width="32" height="64" patternUnits="userSpaceOnUse" id="SvgjsPattern1006"><rect width="40" height="64" fill="#bf4040"></rect><line x1="4" y1="-10" x2="-16" y2="70" stroke-opacity="0.5" stroke-width="4" stroke="#1e1e1e"></line><line x1="12" y1="-10" x2="-8" y2="70" stroke-opacity="0.5" stroke-width="1" stroke="#1e1e1e"></line><line x1="20" y1="-10" x2="0" y2="70" stroke-opacity="0.5" stroke-width="4" stroke="#1e1e1e"></line><line x1="28" y1="-10" x2="8" y2="70" stroke-opacity="0.5" stroke-width="1" stroke="#1e1e1e"></line><line x1="36" y1="-10" x2="16" y2="70" stroke-opacity="0.5" stroke-width="4" stroke="#1e1e1e"></line><line x1="44" y1="-10" x2="24" y2="70" stroke-opacity="0.5" stroke-width="1" stroke="#1e1e1e"></line><line x1="52" y1="-10" x2="32" y2="70" stroke-opacity="0.5" stroke-width="4" stroke="#1e1e1e"></line><line x1="60" y1="-10" x2="40" y2="70" stroke-opacity="0.5" stroke-width="1" stroke="#1e1e1e"></line><line x1="68" y1="-10" x2="48" y2="70" stroke-opacity="0.5" stroke-width="4" stroke="#1e1e1e"></line><line x1="76" y1="-10" x2="56" y2="70" stroke-opacity="0.5" stroke-width="1" stroke="#1e1e1e"></line><line x1="84" y1="-10" x2="64" y2="70" stroke-opacity="0.5" stroke-width="4" stroke="#1e1e1e"></line><line x1="92" y1="-10" x2="72" y2="70" stroke-opacity="0.5" stroke-width="1" stroke="#1e1e1e"></line><line x1="-10" y1="0" x2="70" y2="0" stroke-opacity="0.5" stroke-width="4" stroke="#1e1e1e"></line><line x1="-10" y1="8" x2="70" y2="8" stroke-opacity="0.5" stroke-width="1" stroke="#1e1e1e"></line><line x1="-10" y1="16" x2="70" y2="16" stroke-opacity="0.5" stroke-width="4" stroke="#1e1e1e"></line><line x1="-10" y1="24" x2="70" y2="24" stroke-opacity="0.5" stroke-width="1" stroke="#1e1e1e"></line><line x1="-10" y1="32" x2="70" y2="32" stroke-opacity="0.5" stroke-width="4" stroke="#1e1e1e"></line><line x1="-10" y1="40" x2="70" y2="40" stroke-opacity="0.5" stroke-width="1" stroke="#1e1e1e"></line><line x1="-10" y1="48" x2="70" y2="48" stroke-opacity="0.5" stroke-width="4" stroke="#1e1e1e"></line><line x1="-10" y1="56" x2="70" y2="56" stroke-opacity="0.5" stroke-width="1" stroke="#1e1e1e"></line><line x1="-10" y1="64" x2="70" y2="64" stroke-opacity="0.5" stroke-width="4" stroke="#1e1e1e"></line><line x1="-10" y1="72" x2="70" y2="72" stroke-opacity="0.5" stroke-width="1" stroke="#1e1e1e"></line><line x1="-10" y1="80" x2="70" y2="80" stroke-opacity="0.5" stroke-width="4" stroke="#1e1e1e"></line></pattern><linearGradient x1="0" y1="0" x2="0" y2="1" id="SvgjsLinearGradient1007"><stop stop-color="#3b3b3b" offset="0"></stop><stop stop-color="#1b1b1b" offset="1"></stop></linearGradient><pattern x="0" y="0" width="80" height="80" patternUnits="userSpaceOnUse" id="SvgjsPattern1008"><rect width="80" height="80" fill="#cfff33"></rect><rect width="30" height="2" x="40" y="40" fill="black"></rect><rect width="30" height="2" x="39" y="44" fill="black"></rect><rect width="30" height="2" x="38" y="48" fill="black"></rect></pattern><pattern x="0" y="0" width="60" height="60" patternUnits="userSpaceOnUse" id="SvgjsPattern1009"><rect width="60" height="60" fill="#8000ff"></rect><rect width="10" height="15" x="0" y="0" fill="#000000" opacity="0.6"></rect><rect width="20" height="20" x="10" y="15" fill="#ffffdc" opacity="0.3"></rect><rect width="9" height="9" x="20" y="0" fill="#ffffff" opacity="0.4"></rect><rect width="16" height="12" x="43" y="45" fill="#ffdcff" opacity="0.3"></rect><rect width="15" height="20" x="40" y="30" fill="#dcffe1" opacity="0.3"></rect><rect width="15" height="5" x="10" y="10" fill="#000000" opacity="0.4"></rect><rect width="13" height="15" x="30" y="35" fill="#000000" opacity="0.4"></rect><rect width="15" height="5" x="20" y="35" fill="#fff0f0" opacity="0.4"></rect><rect width="5" height="8" x="15" y="45" fill="#fff0ff" opacity="0.4"></rect><rect width="8" height="15" x="25" y="50" fill="#140000" opacity="0.4"></rect><rect width="10" height="15" x="5" y="50" fill="#001400" opacity="0.4"></rect><rect width="15" height="10" x="0" y="35" fill="#000014" opacity="0.4"></rect><rect width="15" height="10" x="-5" y="20" fill="#ffff00" opacity="0.4"></rect><rect width="15" height="10" x="55" y="20" fill="#ffffdc" opacity="0.4"></rect></pattern><linearGradient x1="0" y1="0" x2="0" y2="1" id="SvgjsLinearGradient1010"><stop stop-color="#525252" offset="0"></stop><stop stop-color="#303030" offset="1"></stop></linearGradient><pattern x="0" y="0" width="80" height="80" patternUnits="userSpaceOnUse" id="SvgjsPattern1011"><rect width="80" height="80" fill="black"></rect><circle r="5" cx="45" cy="45" stroke="#00ffff" fill="none"></circle><circle r="10" cx="45" cy="45" stroke="#00ffff" fill="none"></circle><circle r="15" cx="45" cy="45" stroke="#00ffff" fill="none"></circle><circle r="20" cx="45" cy="45" stroke="#00ffff" fill="none"></circle><circle r="25" cx="45" cy="45" stroke="#00ffff" fill="none"></circle><circle r="30" cx="45" cy="45" stroke="#00ffff" fill="none"></circle><circle r="35" cx="45" cy="45" stroke="#00ffff" fill="none"></circle></pattern><pattern x="0" y="0" width="10" height="10" patternUnits="userSpaceOnUse" id="SvgjsPattern1012"><rect width="40" height="40" fill="#ba87a2"></rect><rect width="60" height="2" x="-10" y="0" fill-opacity="0.2" fill="#ffffff"></rect><rect width="60" height="2" x="-10" y="5" fill-opacity="0.2" fill="#ffffff"></rect><rect width="60" height="2" x="-10" y="10" fill-opacity="0.2" fill="#ffffff"></rect></pattern><pattern x="0" y="0" width="32" height="64" patternUnits="userSpaceOnUse" id="SvgjsPattern1013"><rect width="40" height="64" fill="#87adba"></rect><line x1="4" y1="-10" x2="-16" y2="70" stroke-opacity="0.5" stroke-width="4" stroke="#ffffff"></line><line x1="12" y1="-10" x2="-8" y2="70" stroke-opacity="0.5" stroke-width="1" stroke="#ffffff"></line><line x1="20" y1="-10" x2="0" y2="70" stroke-opacity="0.5" stroke-width="4" stroke="#ffffff"></line><line x1="28" y1="-10" x2="8" y2="70" stroke-opacity="0.5" stroke-width="1" stroke="#ffffff"></line><line x1="36" y1="-10" x2="16" y2="70" stroke-opacity="0.5" stroke-width="4" stroke="#ffffff"></line><line x1="44" y1="-10" x2="24" y2="70" stroke-opacity="0.5" stroke-width="1" stroke="#ffffff"></line><line x1="52" y1="-10" x2="32" y2="70" stroke-opacity="0.5" stroke-width="4" stroke="#ffffff"></line><line x1="60" y1="-10" x2="40" y2="70" stroke-opacity="0.5" stroke-width="1" stroke="#ffffff"></line><line x1="68" y1="-10" x2="48" y2="70" stroke-opacity="0.5" stroke-width="4" stroke="#ffffff"></line><line x1="76" y1="-10" x2="56" y2="70" stroke-opacity="0.5" stroke-width="1" stroke="#ffffff"></line><line x1="84" y1="-10" x2="64" y2="70" stroke-opacity="0.5" stroke-width="4" stroke="#ffffff"></line><line x1="92" y1="-10" x2="72" y2="70" stroke-opacity="0.5" stroke-width="1" stroke="#ffffff"></line><line x1="-10" y1="0" x2="70" y2="0" stroke-opacity="0.5" stroke-width="4" stroke="#ffffff"></line><line x1="-10" y1="8" x2="70" y2="8" stroke-opacity="0.5" stroke-width="1" stroke="#ffffff"></line><line x1="-10" y1="16" x2="70" y2="16" stroke-opacity="0.5" stroke-width="4" stroke="#ffffff"></line><line x1="-10" y1="24" x2="70" y2="24" stroke-opacity="0.5" stroke-width="1" stroke="#ffffff"></line><line x1="-10" y1="32" x2="70" y2="32" stroke-opacity="0.5" stroke-width="4" stroke="#ffffff"></line><line x1="-10" y1="40" x2="70" y2="40" stroke-opacity="0.5" stroke-width="1" stroke="#ffffff"></line><line x1="-10" y1="48" x2="70" y2="48" stroke-opacity="0.5" stroke-width="4" stroke="#ffffff"></line><line x1="-10" y1="56" x2="70" y2="56" stroke-opacity="0.5" stroke-width="1" stroke="#ffffff"></line><line x1="-10" y1="64" x2="70" y2="64" stroke-opacity="0.5" stroke-width="4" stroke="#ffffff"></line><line x1="-10" y1="72" x2="70" y2="72" stroke-opacity="0.5" stroke-width="1" stroke="#ffffff"></line><line x1="-10" y1="80" x2="70" y2="80" stroke-opacity="0.5" stroke-width="4" stroke="#ffffff"></line></pattern><linearGradient x1="0" y1="0" x2="0" y2="1" id="SvgjsLinearGradient1014"><stop stop-color="#5e6993" offset="0"></stop><stop stop-color="#1a386c" offset="1"></stop></linearGradient><pattern x="0" y="0" width="10" height="10" patternUnits="userSpaceOnUse" id="SvgjsPattern1015"><rect width="40" height="40" fill="white"></rect><rect width="60" height="2" x="-10" y="0" fill="#40bf55"></rect><rect width="60" height="2" x="-10" y="5" fill="#40bf55"></rect><rect width="60" height="2" x="-10" y="10" fill="#40bf55"></rect></pattern><linearGradient x1="0" y1="0" x2="0" y2="1" id="SvgjsLinearGradient1016"><stop stop-color="#f1f1f1" offset="0"></stop><stop stop-color="#c6c6c6" offset="1"></stop></linearGradient><pattern x="0" y="0" width="32" height="32" patternUnits="userSpaceOnUse" id="SvgjsPattern1017"><rect width="40" height="40" fill="#28288c"></rect><line x1="4" y1="-10" x2="-16" y2="70" stroke-width="2" stroke="white"></line><line x1="12" y1="-10" x2="-8" y2="70" stroke-width="2" stroke="white"></line><line x1="20" y1="-10" x2="0" y2="70" stroke-width="2" stroke="white"></line><line x1="28" y1="-10" x2="8" y2="70" stroke-width="2" stroke="white"></line><line x1="36" y1="-10" x2="16" y2="70" stroke-width="2" stroke="white"></line><line x1="44" y1="-10" x2="24" y2="70" stroke-width="2" stroke="white"></line><line x1="52" y1="-10" x2="32" y2="70" stroke-width="2" stroke="white"></line></pattern><linearGradient x1="0" y1="0" x2="0" y2="1" id="SvgjsLinearGradient1018"><stop stop-color="#545c85" offset="0"></stop><stop stop-color="#162e61" offset="1"></stop></linearGradient><pattern x="0" y="0" width="10" height="10" patternUnits="userSpaceOnUse" id="SvgjsPattern1019"><rect width="40" height="40" fill="white"></rect><rect width="60" height="2" x="-10" y="0" fill="#4ccce6"></rect><rect width="60" height="2" x="-10" y="5" fill="#4ccce6"></rect><rect width="60" height="2" x="-10" y="10" fill="#4ccce6"></rect></pattern><pattern x="0" y="0" width="10" height="20" patternUnits="userSpaceOnUse" id="SvgjsPattern1020"><rect width="40" height="40" fill="#eee2d3"></rect><rect width="60" height="4" x="-10" y="0" fill="#f0e9e6"></rect><rect width="60" height="4" x="-10" y="10" fill="#f0e9e6"></rect><rect width="60" height="4" x="-10" y="20" fill="#f0e9e6"></rect></pattern><linearGradient x1="0" y1="0" x2="0" y2="1" id="SvgjsLinearGradient1021"><stop stop-color="#b3d8ff" offset="0"></stop><stop stop-color="#4d8bc2" offset="1"></stop></linearGradient><pattern x="0" y="0" width="18" height="20" patternUnits="userSpaceOnUse" id="SvgjsPattern1022"><rect width="20" height="20" fill="white"></rect><line x1="-10" y1="-5" x2="10" y2="5" stroke-width="4" stroke="[object Object]"></line><line x1="8" y1="5" x2="28" y2="-5" stroke-width="4" stroke="[object Object]"></line><line x1="-10" y1="5" x2="10" y2="15" stroke-width="4" stroke="[object Object]"></line><line x1="8" y1="15" x2="28" y2="5" stroke-width="4" stroke="[object Object]"></line><line x1="-10" y1="15" x2="10" y2="25" stroke-width="4" stroke="[object Object]"></line><line x1="8" y1="25" x2="28" y2="15" stroke-width="4" stroke="[object Object]"></line></pattern><linearGradient x1="0" y1="0" x2="0" y2="1" id="SvgjsLinearGradient1023"><stop stop-color="#b9b9b9" offset="0"></stop><stop stop-color="#919191" offset="1"></stop></linearGradient><pattern x="0" y="0" width="32" height="64" patternUnits="userSpaceOnUse" id="SvgjsPattern1024"><rect width="40" height="64" fill="#baf7e3"></rect><line x1="4" y1="-10" x2="-16" y2="70" stroke-opacity="0.4" stroke-width="4" stroke="#80c0ff"></line><line x1="12" y1="-10" x2="-8" y2="70" stroke-opacity="0.4" stroke-width="4" stroke="#80c0ff"></line><line x1="20" y1="-10" x2="0" y2="70" stroke-opacity="0.4" stroke-width="4" stroke="#80c0ff"></line><line x1="28" y1="-10" x2="8" y2="70" stroke-opacity="0.4" stroke-width="4" stroke="#80c0ff"></line><line x1="36" y1="-10" x2="16" y2="70" stroke-opacity="0.4" stroke-width="4" stroke="#80c0ff"></line><line x1="44" y1="-10" x2="24" y2="70" stroke-opacity="0.4" stroke-width="4" stroke="#80c0ff"></line><line x1="52" y1="-10" x2="32" y2="70" stroke-opacity="0.4" stroke-width="4" stroke="#80c0ff"></line><line x1="60" y1="-10" x2="40" y2="70" stroke-opacity="0.4" stroke-width="4" stroke="#80c0ff"></line><line x1="68" y1="-10" x2="48" y2="70" stroke-opacity="0.4" stroke-width="4" stroke="#80c0ff"></line><line x1="76" y1="-10" x2="56" y2="70" stroke-opacity="0.4" stroke-width="4" stroke="#80c0ff"></line><line x1="84" y1="-10" x2="64" y2="70" stroke-opacity="0.4" stroke-width="4" stroke="#80c0ff"></line><line x1="92" y1="-10" x2="72" y2="70" stroke-opacity="0.4" stroke-width="4" stroke="#80c0ff"></line><line x1="-10" y1="0" x2="70" y2="0" stroke-opacity="0.4" stroke-width="4" stroke="#80c0ff"></line><line x1="-10" y1="8" x2="70" y2="8" stroke-opacity="0.4" stroke-width="4" stroke="#80c0ff"></line><line x1="-10" y1="16" x2="70" y2="16" stroke-opacity="0.4" stroke-width="4" stroke="#80c0ff"></line><line x1="-10" y1="24" x2="70" y2="24" stroke-opacity="0.4" stroke-width="4" stroke="#80c0ff"></line><line x1="-10" y1="32" x2="70" y2="32" stroke-opacity="0.4" stroke-width="4" stroke="#80c0ff"></line><line x1="-10" y1="40" x2="70" y2="40" stroke-opacity="0.4" stroke-width="4" stroke="#80c0ff"></line><line x1="-10" y1="48" x2="70" y2="48" stroke-opacity="0.4" stroke-width="4" stroke="#80c0ff"></line><line x1="-10" y1="56" x2="70" y2="56" stroke-opacity="0.4" stroke-width="4" stroke="#80c0ff"></line><line x1="-10" y1="64" x2="70" y2="64" stroke-opacity="0.4" stroke-width="4" stroke="#80c0ff"></line><line x1="-10" y1="72" x2="70" y2="72" stroke-opacity="0.4" stroke-width="4" stroke="#80c0ff"></line><line x1="-10" y1="80" x2="70" y2="80" stroke-opacity="0.4" stroke-width="4" stroke="#80c0ff"></line></pattern><linearGradient x1="0" y1="0" x2="0" y2="1" id="SvgjsLinearGradient1025"><stop stop-color="#9dbbe6" offset="0"></stop><stop stop-color="#4075ad" offset="1"></stop></linearGradient><pattern x="0" y="0" width="10" height="10" patternUnits="userSpaceOnUse" id="SvgjsPattern1026"><rect width="40" height="40" fill="#ffb399"></rect><rect width="60" height="2" x="-10" y="0" fill="white"></rect><rect width="60" height="2" x="-10" y="5" fill="white"></rect><rect width="60" height="2" x="-10" y="10" fill="white"></rect></pattern><pattern x="0" y="0" width="60" height="60" patternUnits="userSpaceOnUse" id="SvgjsPattern1027"><rect width="60" height="60" fill="#645f3e"></rect><rect width="10" height="15" x="0" y="0" fill="#000000" opacity="0.6"></rect><rect width="20" height="20" x="10" y="15" fill="#ffffdc" opacity="0.3"></rect><rect width="9" height="9" x="20" y="0" fill="#ffffff" opacity="0.4"></rect><rect width="16" height="12" x="43" y="45" fill="#ffdcff" opacity="0.3"></rect><rect width="15" height="20" x="40" y="30" fill="#dcffe1" opacity="0.3"></rect><rect width="15" height="5" x="10" y="10" fill="#000000" opacity="0.4"></rect><rect width="13" height="15" x="30" y="35" fill="#000000" opacity="0.4"></rect><rect width="15" height="5" x="20" y="35" fill="#fff0f0" opacity="0.4"></rect><rect width="5" height="8" x="15" y="45" fill="#fff0ff" opacity="0.4"></rect><rect width="8" height="15" x="25" y="50" fill="#140000" opacity="0.4"></rect><rect width="10" height="15" x="5" y="50" fill="#001400" opacity="0.4"></rect><rect width="15" height="10" x="0" y="35" fill="#000014" opacity="0.4"></rect><rect width="15" height="10" x="-5" y="20" fill="#ffff00" opacity="0.4"></rect><rect width="15" height="10" x="55" y="20" fill="#ffffdc" opacity="0.4"></rect></pattern><pattern x="0" y="0" width="10" height="20" patternUnits="userSpaceOnUse" id="SvgjsPattern1028"><rect width="40" height="40" fill="#d7d1ed"></rect><rect width="60" height="4" x="-10" y="0" fill="#fcf6ff"></rect><rect width="60" height="4" x="-10" y="10" fill="#fcf6ff"></rect><rect width="60" height="4" x="-10" y="20" fill="#fcf6ff"></rect></pattern><linearGradient x1="0" y1="0" x2="0" y2="1" id="SvgjsLinearGradient1029"><stop stop-color="#879fca" offset="0"></stop><stop stop-color="#336097" offset="1"></stop></linearGradient><pattern x="0" y="0" width="18" height="20" patternUnits="userSpaceOnUse" id="SvgjsPattern1030"><rect width="20" height="20" fill="#6c515f"></rect><line x1="-10" y1="-5" x2="10" y2="5" stroke-width="4" stroke="#5a2846"></line><line x1="8" y1="5" x2="28" y2="-5" stroke-width="4" stroke="#5a2846"></line><line x1="-10" y1="5" x2="10" y2="15" stroke-width="4" stroke="#5a2846"></line><line x1="8" y1="15" x2="28" y2="5" stroke-width="4" stroke="#5a2846"></line><line x1="-10" y1="15" x2="10" y2="25" stroke-width="4" stroke="#5a2846"></line><line x1="8" y1="25" x2="28" y2="15" stroke-width="4" stroke="#5a2846"></line></pattern><pattern x="0" y="0" width="32" height="64" patternUnits="userSpaceOnUse" id="SvgjsPattern1031"><rect width="40" height="64" fill="#282828"></rect><line x1="4" y1="-10" x2="-16" y2="70" stroke-opacity="0.5" stroke-width="4" stroke="#ff6464"></line><line x1="12" y1="-10" x2="-8" y2="70" stroke-opacity="0.5" stroke-width="1" stroke="#ff6464"></line><line x1="20" y1="-10" x2="0" y2="70" stroke-opacity="0.5" stroke-width="4" stroke="#ff6464"></line><line x1="28" y1="-10" x2="8" y2="70" stroke-opacity="0.5" stroke-width="1" stroke="#ff6464"></line><line x1="36" y1="-10" x2="16" y2="70" stroke-opacity="0.5" stroke-width="4" stroke="#ff6464"></line><line x1="44" y1="-10" x2="24" y2="70" stroke-opacity="0.5" stroke-width="1" stroke="#ff6464"></line><line x1="52" y1="-10" x2="32" y2="70" stroke-opacity="0.5" stroke-width="4" stroke="#ff6464"></line><line x1="60" y1="-10" x2="40" y2="70" stroke-opacity="0.5" stroke-width="1" stroke="#ff6464"></line><line x1="68" y1="-10" x2="48" y2="70" stroke-opacity="0.5" stroke-width="4" stroke="#ff6464"></line><line x1="76" y1="-10" x2="56" y2="70" stroke-opacity="0.5" stroke-width="1" stroke="#ff6464"></line><line x1="84" y1="-10" x2="64" y2="70" stroke-opacity="0.5" stroke-width="4" stroke="#ff6464"></line><line x1="92" y1="-10" x2="72" y2="70" stroke-opacity="0.5" stroke-width="1" stroke="#ff6464"></line><line x1="-10" y1="0" x2="70" y2="0" stroke-opacity="0.5" stroke-width="4" stroke="#ff6464"></line><line x1="-10" y1="8" x2="70" y2="8" stroke-opacity="0.5" stroke-width="1" stroke="#ff6464"></line><line x1="-10" y1="16" x2="70" y2="16" stroke-opacity="0.5" stroke-width="4" stroke="#ff6464"></line><line x1="-10" y1="24" x2="70" y2="24" stroke-opacity="0.5" stroke-width="1" stroke="#ff6464"></line><line x1="-10" y1="32" x2="70" y2="32" stroke-opacity="0.5" stroke-width="4" stroke="#ff6464"></line><line x1="-10" y1="40" x2="70" y2="40" stroke-opacity="0.5" stroke-width="1" stroke="#ff6464"></line><line x1="-10" y1="48" x2="70" y2="48" stroke-opacity="0.5" stroke-width="4" stroke="#ff6464"></line><line x1="-10" y1="56" x2="70" y2="56" stroke-opacity="0.5" stroke-width="1" stroke="#ff6464"></line><line x1="-10" y1="64" x2="70" y2="64" stroke-opacity="0.5" stroke-width="4" stroke="#ff6464"></line><line x1="-10" y1="72" x2="70" y2="72" stroke-opacity="0.5" stroke-width="1" stroke="#ff6464"></line><line x1="-10" y1="80" x2="70" y2="80" stroke-opacity="0.5" stroke-width="4" stroke="#ff6464"></line></pattern><linearGradient x1="0" y1="0" x2="0" y2="1" id="SvgjsLinearGradient1032"><stop stop-color="#545c85" offset="0"></stop><stop stop-color="#162e61" offset="1"></stop></linearGradient><pattern x="0" y="0" width="12" height="12" patternUnits="userSpaceOnUse" id="SvgjsPattern1033"><rect width="20" height="20" fill="#f2330d"></rect><circle r="1.5" cx="1.5" cy="1.5" fill="white"></circle><circle r="1.5" cx="7.5" cy="7.5" fill="white"></circle><circle r="1.5" cx="13.5" cy="13.5" fill="white"></circle></pattern><linearGradient x1="0" y1="0" x2="0" y2="1" id="SvgjsLinearGradient1034"><stop stop-color="#3b3b3b" offset="0"></stop><stop stop-color="#1b1b1b" offset="1"></stop></linearGradient><pattern x="0" y="0" width="10" height="10" patternUnits="userSpaceOnUse" id="SvgjsPattern1035"><rect width="40" height="40" fill="#e6c24c"></rect><rect width="60" height="2" x="-10" y="0" fill="#40bf55"></rect><rect width="60" height="2" x="-10" y="5" fill="#40bf55"></rect><rect width="60" height="2" x="-10" y="10" fill="#40bf55"></rect></pattern><pattern x="0" y="0" width="80" height="80" patternUnits="userSpaceOnUse" id="SvgjsPattern1036"><rect width="80" height="80" fill="#196626"></rect><rect width="30" height="2" x="40" y="40" fill="white"></rect><rect width="30" height="2" x="39" y="44" fill="white"></rect><rect width="30" height="2" x="38" y="48" fill="white"></rect></pattern><linearGradient x1="0" y1="0" x2="0" y2="1" id="SvgjsLinearGradient1037"><stop stop-color="#7d91bc" offset="0"></stop><stop stop-color="#2e558c" offset="1"></stop></linearGradient><pattern x="0" y="0" width="60" height="60" patternUnits="userSpaceOnUse" id="SvgjsPattern1038"><rect width="60" height="60" fill="#6c6651"></rect><rect width="10" height="15" x="0" y="0" fill="#000000" opacity="0.6"></rect><rect width="20" height="20" x="10" y="15" fill="#ffffdc" opacity="0.3"></rect><rect width="9" height="9" x="20" y="0" fill="#ffffff" opacity="0.4"></rect><rect width="16" height="12" x="43" y="45" fill="#ffdcff" opacity="0.3"></rect><rect width="15" height="20" x="40" y="30" fill="#dcffe1" opacity="0.3"></rect><rect width="15" height="5" x="10" y="10" fill="#000000" opacity="0.4"></rect><rect width="13" height="15" x="30" y="35" fill="#000000" opacity="0.4"></rect><rect width="15" height="5" x="20" y="35" fill="#fff0f0" opacity="0.4"></rect><rect width="5" height="8" x="15" y="45" fill="#fff0ff" opacity="0.4"></rect><rect width="8" height="15" x="25" y="50" fill="#140000" opacity="0.4"></rect><rect width="10" height="15" x="5" y="50" fill="#001400" opacity="0.4"></rect><rect width="15" height="10" x="0" y="35" fill="#000014" opacity="0.4"></rect><rect width="15" height="10" x="-5" y="20" fill="#ffff00" opacity="0.4"></rect><rect width="15" height="10" x="55" y="20" fill="#ffffdc" opacity="0.4"></rect></pattern><linearGradient x1="0" y1="0" x2="0" y2="1" id="SvgjsLinearGradient1039"><stop stop-color="#6876a0" offset="0"></stop><stop stop-color="#224177" offset="1"></stop></linearGradient><pattern x="0" y="0" width="10" height="10" patternUnits="userSpaceOnUse" id="SvgjsPattern1040"><rect width="40" height="40" fill="#42778a"></rect><rect width="60" height="2" x="-10" y="0" fill-opacity="0.4" fill="#ffffff"></rect><rect width="60" height="2" x="-10" y="5" fill-opacity="0.4" fill="#ffffff"></rect><rect width="60" height="2" x="-10" y="10" fill-opacity="0.4" fill="#ffffff"></rect></pattern><pattern x="0" y="0" width="32" height="64" patternUnits="userSpaceOnUse" id="SvgjsPattern1041"><rect width="40" height="64" fill="#8a4268"></rect><line x1="4" y1="-10" x2="-16" y2="70" stroke-opacity="0.4" stroke-width="4" stroke="#ffffff"></line><line x1="12" y1="-10" x2="-8" y2="70" stroke-opacity="0.4" stroke-width="4" stroke="#ffffff"></line><line x1="20" y1="-10" x2="0" y2="70" stroke-opacity="0.4" stroke-width="4" stroke="#ffffff"></line><line x1="28" y1="-10" x2="8" y2="70" stroke-opacity="0.4" stroke-width="4" stroke="#ffffff"></line><line x1="36" y1="-10" x2="16" y2="70" stroke-opacity="0.4" stroke-width="4" stroke="#ffffff"></line><line x1="44" y1="-10" x2="24" y2="70" stroke-opacity="0.4" stroke-width="4" stroke="#ffffff"></line><line x1="52" y1="-10" x2="32" y2="70" stroke-opacity="0.4" stroke-width="4" stroke="#ffffff"></line><line x1="60" y1="-10" x2="40" y2="70" stroke-opacity="0.4" stroke-width="4" stroke="#ffffff"></line><line x1="68" y1="-10" x2="48" y2="70" stroke-opacity="0.4" stroke-width="4" stroke="#ffffff"></line><line x1="76" y1="-10" x2="56" y2="70" stroke-opacity="0.4" stroke-width="4" stroke="#ffffff"></line><line x1="84" y1="-10" x2="64" y2="70" stroke-opacity="0.4" stroke-width="4" stroke="#ffffff"></line><line x1="92" y1="-10" x2="72" y2="70" stroke-opacity="0.4" stroke-width="4" stroke="#ffffff"></line><line x1="-10" y1="0" x2="70" y2="0" stroke-opacity="0.4" stroke-width="4" stroke="#ffffff"></line><line x1="-10" y1="8" x2="70" y2="8" stroke-opacity="0.4" stroke-width="4" stroke="#ffffff"></line><line x1="-10" y1="16" x2="70" y2="16" stroke-opacity="0.4" stroke-width="4" stroke="#ffffff"></line><line x1="-10" y1="24" x2="70" y2="24" stroke-opacity="0.4" stroke-width="4" stroke="#ffffff"></line><line x1="-10" y1="32" x2="70" y2="32" stroke-opacity="0.4" stroke-width="4" stroke="#ffffff"></line><line x1="-10" y1="40" x2="70" y2="40" stroke-opacity="0.4" stroke-width="4" stroke="#ffffff"></line><line x1="-10" y1="48" x2="70" y2="48" stroke-opacity="0.4" stroke-width="4" stroke="#ffffff"></line><line x1="-10" y1="56" x2="70" y2="56" stroke-opacity="0.4" stroke-width="4" stroke="#ffffff"></line><line x1="-10" y1="64" x2="70" y2="64" stroke-opacity="0.4" stroke-width="4" stroke="#ffffff"></line><line x1="-10" y1="72" x2="70" y2="72" stroke-opacity="0.4" stroke-width="4" stroke="#ffffff"></line><line x1="-10" y1="80" x2="70" y2="80" stroke-opacity="0.4" stroke-width="4" stroke="#ffffff"></line></pattern><linearGradient x1="0" y1="0" x2="0" y2="1" id="SvgjsLinearGradient1042"><stop stop-color="#5e6993" offset="0"></stop><stop stop-color="#1a386c" offset="1"></stop></linearGradient><linearGradient x1="0" y1="0" x2="0" y2="1" id="SvgjsLinearGradient1043"><stop stop-color="#4a5078" offset="0"></stop><stop stop-color="#0e2557" offset="1"></stop></linearGradient><pattern x="0" y="0" width="40" height="21" patternUnits="userSpaceOnUse" id="SvgjsPattern1044"><rect width="40" height="3" fill="#c82828"></rect><rect width="40" height="3" x="0" y="3" fill="#ff6c6f"></rect><rect width="40" height="3" x="0" y="6" fill="#ffc600"></rect><rect width="40" height="3" x="0" y="9" fill="#a8e825"></rect><rect width="40" height="3" x="0" y="12" fill="#00deef"></rect><rect width="40" height="3" x="0" y="15" fill="#0090ff"></rect><rect width="40" height="3" x="0" y="18" fill="#7530df"></rect></pattern><linearGradient x1="0" y1="0" x2="0" y2="1" id="SvgjsLinearGradient1045"><stop stop-color="#b3d8ff" offset="0"></stop><stop stop-color="#4d8bc2" offset="1"></stop></linearGradient><radialGradient fx="0.5" fy="-0.25" cx="0.5" cy="1" r="1.4" id="SvgjsRadialGradient1046"><stop stop-color="#feeaff" offset="0"></stop><stop stop-color="#ac9dff" offset="0.1"></stop><stop stop-color="#feeaff" offset="0.2"></stop><stop stop-color="#ac9dff" offset="0.3"></stop><stop stop-color="#feeaff" offset="0.4"></stop><stop stop-color="#ac9dff" offset="0.5"></stop><stop stop-color="#feeaff" offset="0.6"></stop><stop stop-color="#ac9dff" offset="0.7"></stop><stop stop-color="#feeaff" offset="0.8"></stop><stop stop-color="#ac9dff" offset="0.9"></stop><stop stop-color="#feeaff" offset="0.8"></stop><stop stop-color="#ac9dff" offset="0.9"></stop></radialGradient><linearGradient x1="0" y1="0" x2="0" y2="1" id="SvgjsLinearGradient1047"><stop stop-color="#5e5e5e" offset="0"></stop><stop stop-color="#3b3b3b" offset="1"></stop></linearGradient></defs><rect width="80" height="120" x="0" y="0" fill="#f0f0fa"></rect><circle r="10" cx="45" cy="20" fill="#cb8d79"></circle><polygon points="25,30 65,30 55,70 15,70" fill="black"></polygon><polygon points="25,70 65,70 55,110 15,110" fill="url(#SvgjsLinearGradient1000)"></polygon><rect width="80" height="120" x="90" y="0" fill="#f0f0fa"></rect><circle r="10" cx="135" cy="20" fill="#f8c3b4"></circle><polygon points="115,30 155,30 145,70 105,70" fill="url(#SvgjsPattern1001)"></polygon><polygon points="115,70 155,70 145,110 105,110" fill="black"></polygon><rect width="80" height="120" x="180" y="0" fill="#f0f0fa"></rect><circle r="10" cx="225" cy="20" fill="#f8c3b4"></circle><polygon points="205,30 245,30 235,70 195,70" fill="black"></polygon><polygon points="205,70 245,70 235,110 195,110" fill="#1e1e1e"></polygon><rect width="80" height="120" x="270" y="0" fill="#f0f0fa"></rect><circle r="10" cx="315" cy="20" fill="#cda184"></circle><polygon points="295,30 335,30 325,70 285,70" fill="white"></polygon><polygon points="295,70 335,70 325,110 285,110" fill="url(#SvgjsLinearGradient1002)"></polygon><rect width="80" height="120" x="0" y="0" fill="#f0f0fa"></rect><circle r="10" cx="45" cy="20" fill="#cda184"></circle><polygon points="25,30 65,30 55,70 15,70" fill="url(#SvgjsPattern1003)"></polygon><polygon points="25,70 65,70 55,110 15,110" fill="black"></polygon><rect width="80" height="120" x="90" y="0" fill="#f0f0fa"></rect><circle r="10" cx="135" cy="20" fill="#f8c3b4"></circle><polygon points="115,30 155,30 145,70 105,70" fill="url(#SvgjsPattern1004)"></polygon><polygon points="115,70 155,70 145,110 105,110" fill="url(#SvgjsLinearGradient1005)"></polygon><line x1="110" y1="105" x2="145" y2="105" stroke-dasharray="2,2" stroke-width="1" stroke="#6414ff"></line><rect width="80" height="120" x="180" y="0" fill="#f0f0fa"></rect><circle r="10" cx="225" cy="20" fill="#cb8d79"></circle><polygon points="205,30 245,30 235,70 195,70" fill="black"></polygon><polygon points="205,70 245,70 235,110 195,110" fill="url(#SvgjsPattern1006)"></polygon><rect width="80" height="120" x="270" y="0" fill="#f0f0fa"></rect><circle r="10" cx="315" cy="20" fill="#9c5f44"></circle><polygon points="295,30 335,30 325,70 285,70" fill="url(#SvgjsLinearGradient1007)"></polygon><polygon points="295,70 335,70 325,110 285,110" fill="#8a4268"></polygon><rect width="80" height="120" x="0" y="0" fill="#f0f0fa"></rect><circle r="10" cx="45" cy="20" fill="#cda184"></circle><polygon points="25,30 65,30 55,70 15,70" fill="url(#SvgjsPattern1008)"></polygon><polygon points="25,70 65,70 55,110 15,110" fill="black"></polygon><line x1="20" y1="105" x2="55" y2="105" stroke-dasharray="2,2" stroke-width="1" stroke="#cfff33"></line><rect width="80" height="120" x="90" y="0" fill="#f0f0fa"></rect><circle r="10" cx="135" cy="20" fill="#cda184"></circle><polygon points="115,30 155,30 145,70 105,70" fill="url(#SvgjsPattern1009)"></polygon><polygon points="115,70 155,70 145,110 105,110" fill="url(#SvgjsLinearGradient1010)"></polygon><rect width="80" height="120" x="180" y="0" fill="#f0f0fa"></rect><circle r="10" cx="225" cy="20" fill="#f8c3b4"></circle><polygon points="205,30 245,30 235,70 195,70" fill="#ff33b1"></polygon><polygon points="205,70 245,70 235,110 195,110" fill="white"></polygon><rect width="80" height="120" x="270" y="0" fill="#f0f0fa"></rect><circle r="10" cx="315" cy="20" fill="#f8c3b4"></circle><polygon points="295,30 335,30 325,70 285,70" fill="#33ffff"></polygon><polygon points="295,70 335,70 325,110 285,110" fill="url(#SvgjsPattern1011)"></polygon><rect width="80" height="120" x="0" y="0" fill="#f0f0fa"></rect><circle r="10" cx="45" cy="20" fill="#cda184"></circle><polygon points="25,30 65,30 55,70 15,70" fill="url(#SvgjsPattern1012)"></polygon><polygon points="25,70 65,70 55,110 15,110" fill="#3c3c3c"></polygon><rect width="80" height="120" x="90" y="0" fill="#f0f0fa"></rect><circle r="10" cx="135" cy="20" fill="#cb8d79"></circle><polygon points="115,30 155,30 145,70 105,70" fill="#bab087"></polygon><polygon points="115,70 155,70 145,110 105,110" fill="#51656c"></polygon><rect width="80" height="120" x="180" y="0" fill="#f0f0fa"></rect><circle r="10" cx="225" cy="20" fill="#9c5f44"></circle><polygon points="205,30 245,30 235,70 195,70" fill="#fffaf0"></polygon><polygon points="205,70 245,70 235,110 195,110" fill="#8a7b42"></polygon><rect width="80" height="120" x="270" y="0" fill="#f0f0fa"></rect><circle r="10" cx="315" cy="20" fill="#cda184"></circle><polygon points="295,30 335,30 325,70 285,70" fill="url(#SvgjsPattern1013)"></polygon><polygon points="295,70 335,70 325,110 285,110" fill="url(#SvgjsLinearGradient1014)"></polygon><line x1="290" y1="105" x2="325" y2="105" stroke-dasharray="2,2" stroke-width="1" stroke="#be8200"></line><rect width="80" height="120" x="0" y="0" fill="#f0f0fa"></rect><circle r="10" cx="45" cy="20" fill="#7e5234"></circle><polygon points="25,30 65,30 55,70 15,70" fill="#409dbf"></polygon><polygon points="25,70 65,70 55,110 15,110" fill="#661919"></polygon><rect width="80" height="120" x="90" y="0" fill="#f0f0fa"></rect><circle r="10" cx="135" cy="20" fill="#9c5f44"></circle><polygon points="115,30 155,30 145,70 105,70" fill="#bf4040"></polygon><polygon points="115,70 155,70 145,110 105,110" fill="#407fbf"></polygon><polygon points="123,40 145,40 142,50 120,50" fill="white"></polygon><rect width="80" height="120" x="180" y="0" fill="#f0f0fa"></rect><circle r="10" cx="225" cy="20" fill="#cda184"></circle><polygon points="205,30 245,30 235,70 195,70" fill="url(#SvgjsPattern1015)"></polygon><polygon points="205,70 245,70 235,110 195,110" fill="#323278"></polygon><rect width="80" height="120" x="270" y="0" fill="#f0f0fa"></rect><circle r="10" cx="315" cy="20" fill="#7e5234"></circle><polygon points="295,30 335,30 325,70 285,70" fill="#195266"></polygon><polygon points="295,70 335,70 325,110 285,110" fill="url(#SvgjsLinearGradient1016)"></polygon><rect width="80" height="120" x="0" y="0" fill="#f0f0fa"></rect><circle r="10" cx="45" cy="20" fill="#f7aa72"></circle><polygon points="25,30 65,30 55,70 15,70" fill="#f2bd0d"></polygon><polygon points="25,70 65,70 55,110 15,110" fill="url(#SvgjsPattern1017)"></polygon><rect width="80" height="120" x="90" y="0" fill="#f0f0fa"></rect><circle r="10" cx="135" cy="20" fill="#7e5234"></circle><polygon points="115,30 155,30 145,70 105,70" fill="#f2330d"></polygon><polygon points="115,70 155,70 145,110 105,110" fill="#fffaf0"></polygon><rect width="80" height="120" x="180" y="0" fill="#f0f0fa"></rect><circle r="10" cx="225" cy="20" fill="#f8c3b4"></circle><polygon points="205,30 245,30 235,70 195,70" fill="#4ccce6"></polygon><polygon points="205,70 245,70 235,110 195,110" fill="url(#SvgjsLinearGradient1018)"></polygon><polygon points="213,40 235,40 232,50 210,50" fill="url(#SvgjsPattern1019)"></polygon><line x1="200" y1="105" x2="235" y2="105" stroke-dasharray="2,2" stroke-width="1" stroke="#0082be"></line><rect width="80" height="120" x="270" y="0" fill="#f0f0fa"></rect><circle r="10" cx="315" cy="20" fill="#f7aa72"></circle><polygon points="295,30 335,30 325,70 285,70" fill="#e6664c"></polygon><polygon points="295,70 335,70 325,110 285,110" fill="#4ca6e6"></polygon><rect width="80" height="120" x="0" y="0" fill="#f0f0fa"></rect><circle r="10" cx="45" cy="20" fill="#7e5234"></circle><polygon points="25,30 65,30 55,70 15,70" fill="#d3eee5"></polygon><polygon points="25,70 65,70 55,110 15,110" fill="darkgrey"></polygon><rect width="80" height="120" x="90" y="0" fill="#f0f0fa"></rect><circle r="10" cx="135" cy="20" fill="#cb8d79"></circle><polygon points="115,30 155,30 145,70 105,70" fill="url(#SvgjsPattern1020)"></polygon><polygon points="115,70 155,70 145,110 105,110" fill="url(#SvgjsLinearGradient1021)"></polygon><line x1="110" y1="105" x2="145" y2="105" stroke-dasharray="2,2" stroke-width="1" stroke="#f0d400"></line><rect width="80" height="120" x="180" y="0" fill="#f0f0fa"></rect><circle r="10" cx="225" cy="20" fill="#f7aa72"></circle><polygon points="205,30 245,30 235,70 195,70" fill="#eed3ea"></polygon><polygon points="205,70 245,70 235,110 195,110" fill="#9298b0"></polygon><rect width="80" height="120" x="270" y="0" fill="#f0f0fa"></rect><circle r="10" cx="315" cy="20" fill="#f8c3b4"></circle><polygon points="295,30 335,30 325,70 285,70" fill="#d3d9ee"></polygon><polygon points="295,70 335,70 325,110 285,110" fill="url(#SvgjsPattern1022)"></polygon><rect width="80" height="120" x="0" y="0" fill="#f0f0fa"></rect><circle r="10" cx="45" cy="20" fill="#cda184"></circle><polygon points="25,30 65,30 55,70 15,70" fill="#ffe699"></polygon><polygon points="25,70 65,70 55,110 15,110" fill="url(#SvgjsLinearGradient1023)"></polygon><polygon points="33,40 55,40 52,50 30,50" fill="white"></polygon><rect width="80" height="120" x="90" y="0" fill="#f0f0fa"></rect><circle r="10" cx="135" cy="20" fill="#9c5f44"></circle><polygon points="115,30 155,30 145,70 105,70" fill="url(#SvgjsPattern1024)"></polygon><polygon points="115,70 155,70 145,110 105,110" fill="url(#SvgjsLinearGradient1025)"></polygon><line x1="110" y1="105" x2="145" y2="105" stroke-dasharray="2,2" stroke-width="1" stroke="[object Object]"></line><rect width="80" height="120" x="180" y="0" fill="#f0f0fa"></rect><circle r="10" cx="225" cy="20" fill="#f8c3b4"></circle><polygon points="205,30 245,30 235,70 195,70" fill="#eeccff"></polygon><polygon points="205,70 245,70 235,110 195,110" fill="white"></polygon><rect width="80" height="120" x="270" y="0" fill="#f0f0fa"></rect><circle r="10" cx="315" cy="20" fill="#cda184"></circle><polygon points="295,30 335,30 325,70 285,70" fill="url(#SvgjsPattern1026)"></polygon><polygon points="295,70 335,70 325,110 285,110" fill="#282864"></polygon><rect width="80" height="120" x="0" y="0" fill="#f0f0fa"></rect><circle r="10" cx="45" cy="20" fill="#f8c3b4"></circle><polygon points="25,30 65,30 55,70 15,70" fill="#00aab3"></polygon><polygon points="25,70 65,70 55,110 15,110" fill="#3c6566"></polygon><rect width="80" height="120" x="90" y="0" fill="#f0f0fa"></rect><circle r="10" cx="135" cy="20" fill="#cb8d79"></circle><polygon points="115,30 155,30 145,70 105,70" fill="#cdc7ab"></polygon><polygon points="115,70 155,70 145,110 105,110" fill="url(#SvgjsPattern1027)"></polygon><polygon points="123,40 145,40 142,50 120,50" fill="#f7f1d4"></polygon><rect width="80" height="120" x="180" y="0" fill="#f0f0fa"></rect><circle r="10" cx="225" cy="20" fill="#cb8d79"></circle><polygon points="205,30 245,30 235,70 195,70" fill="url(#SvgjsPattern1028)"></polygon><polygon points="205,70 245,70 235,110 195,110" fill="#413c8b"></polygon><rect width="80" height="120" x="270" y="0" fill="#f0f0fa"></rect><circle r="10" cx="315" cy="20" fill="#cb8d79"></circle><polygon points="295,30 335,30 325,70 285,70" fill="#87ccff"></polygon><polygon points="295,70 335,70 325,110 285,110" fill="url(#SvgjsLinearGradient1029)"></polygon><line x1="290" y1="105" x2="325" y2="105" stroke-dasharray="2,2" stroke-width="1" stroke="[object Object]"></line><rect width="80" height="120" x="0" y="0" fill="#f0f0fa"></rect><circle r="10" cx="45" cy="20" fill="#9c5f44"></circle><polygon points="25,30 65,30 55,70 15,70" fill="#e6664c"></polygon><polygon points="25,70 65,70 55,110 15,110" fill="url(#SvgjsPattern1030)"></polygon><rect width="80" height="120" x="90" y="0" fill="#f0f0fa"></rect><circle r="10" cx="135" cy="20" fill="#cda184"></circle><polygon points="115,30 155,30 145,70 105,70" fill="url(#SvgjsPattern1031)"></polygon><polygon points="115,70 155,70 145,110 105,110" fill="#6c5d51"></polygon><rect width="80" height="120" x="180" y="0" fill="#f0f0fa"></rect><circle r="10" cx="225" cy="20" fill="#cb8d79"></circle><polygon points="205,30 245,30 235,70 195,70" fill="#ff334b"></polygon><polygon points="205,70 245,70 235,110 195,110" fill="url(#SvgjsLinearGradient1032)"></polygon><line x1="200" y1="105" x2="235" y2="105" stroke-dasharray="2,2" stroke-width="1" stroke="#0082be"></line><rect width="80" height="120" x="270" y="0" fill="#f0f0fa"></rect><circle r="10" cx="315" cy="20" fill="#cda184"></circle><polygon points="295,30 335,30 325,70 285,70" fill="black"></polygon><polygon points="295,70 335,70 325,110 285,110" fill="url(#SvgjsPattern1033)"></polygon><rect width="80" height="120" x="0" y="0" fill="#f0f0fa"></rect><circle r="10" cx="45" cy="20" fill="#f8c3b4"></circle><polygon points="25,30 65,30 55,70 15,70" fill="#376419"></polygon><polygon points="25,70 65,70 55,110 15,110" fill="#e5dcc8"></polygon><rect width="80" height="120" x="90" y="0" fill="#f0f0fa"></rect><circle r="10" cx="135" cy="20" fill="#f8c3b4"></circle><polygon points="115,30 155,30 145,70 105,70" fill="#40bf55"></polygon><polygon points="115,70 155,70 145,110 105,110" fill="url(#SvgjsLinearGradient1034)"></polygon><polygon points="123,40 145,40 142,50 120,50" fill="url(#SvgjsPattern1035)"></polygon><line x1="110" y1="105" x2="145" y2="105" stroke-dasharray="2,2" stroke-width="1" stroke="[object Object]"></line><rect width="80" height="120" x="180" y="0" fill="#f0f0fa"></rect><circle r="10" cx="225" cy="20" fill="#f8c3b4"></circle><polygon points="205,30 245,30 235,70 195,70" fill="url(#SvgjsPattern1036)"></polygon><polygon points="205,70 245,70 235,110 195,110" fill="url(#SvgjsLinearGradient1037)"></polygon><rect width="80" height="120" x="270" y="0" fill="#f0f0fa"></rect><circle r="10" cx="315" cy="20" fill="#cb8d79"></circle><polygon points="295,30 335,30 325,70 285,70" fill="#51656c"></polygon><polygon points="295,70 335,70 325,110 285,110" fill="url(#SvgjsPattern1038)"></polygon><rect width="80" height="120" x="0" y="0" fill="#f0f0fa"></rect><circle r="10" cx="45" cy="20" fill="#f7aa72"></circle><polygon points="25,30 65,30 55,70 15,70" fill="#409dbf"></polygon><polygon points="25,70 65,70 55,110 15,110" fill="url(#SvgjsLinearGradient1039)"></polygon><line x1="20" y1="105" x2="55" y2="105" stroke-dasharray="2,2" stroke-width="1" stroke="white"></line><rect width="80" height="120" x="90" y="0" fill="#f0f0fa"></rect><circle r="10" cx="135" cy="20" fill="#f8c3b4"></circle><polygon points="115,30 155,30 145,70 105,70" fill="url(#SvgjsPattern1040)"></polygon><polygon points="115,70 155,70 145,110 105,110" fill="#6c6651"></polygon><rect width="80" height="120" x="180" y="0" fill="#f0f0fa"></rect><circle r="10" cx="225" cy="20" fill="#f8c3b4"></circle><polygon points="205,30 245,30 235,70 195,70" fill="#87a1ba"></polygon><polygon points="205,70 245,70 235,110 195,110" fill="#515e6c"></polygon><rect width="80" height="120" x="270" y="0" fill="#f0f0fa"></rect><circle r="10" cx="315" cy="20" fill="#f7aa72"></circle><polygon points="295,30 335,30 325,70 285,70" fill="#3c5a96"></polygon><polygon points="295,70 335,70 325,110 285,110" fill="black"></polygon><polygon points="303,40 325,40 322,50 300,50" fill="#7896c8"></polygon><rect width="80" height="120" x="0" y="0" fill="#f0f0fa"></rect><circle r="10" cx="45" cy="20" fill="#f8c3b4"></circle><polygon points="25,30 65,30 55,70 15,70" fill="url(#SvgjsPattern1041)"></polygon><polygon points="25,70 65,70 55,110 15,110" fill="url(#SvgjsLinearGradient1042)"></polygon><line x1="20" y1="105" x2="55" y2="105" stroke-dasharray="2,2" stroke-width="1" stroke="#be8200"></line><rect width="80" height="120" x="90" y="0" fill="#f0f0fa"></rect><circle r="10" cx="135" cy="20" fill="#f8c3b4"></circle><polygon points="115,30 155,30 145,70 105,70" fill="#7828fa"></polygon><polygon points="115,70 155,70 145,110 105,110" fill="url(#SvgjsLinearGradient1043)"></polygon><polygon points="123,40 145,40 142,50 120,50" fill="url(#SvgjsPattern1044)"></polygon><rect width="80" height="120" x="180" y="0" fill="#f0f0fa"></rect><circle r="10" cx="225" cy="20" fill="#9c5f44"></circle><polygon points="205,30 245,30 235,70 195,70" fill="#b092ab"></polygon><polygon points="205,70 245,70 235,110 195,110" fill="url(#SvgjsLinearGradient1045)"></polygon><polygon points="213,40 235,40 232,50 210,50" fill-opacity="0.5" fill="#ffffff"></polygon><line x1="200" y1="105" x2="235" y2="105" stroke-dasharray="2,2" stroke-width="1" stroke="#dc50ff"></line><rect width="80" height="120" x="270" y="0" fill="#f0f0fa"></rect><circle r="10" cx="315" cy="20" fill="#f8c3b4"></circle><polygon points="295,30 335,30 325,70 285,70" fill="url(#SvgjsRadialGradient1046)"></polygon><polygon points="295,70 335,70 325,110 285,110" fill="url(#SvgjsLinearGradient1047)"></polygon></svg>