<svg id="Layer_1" data-name="Layer 1" xmlns="http://www.w3.org/2000/svg" viewBox="0 0 512 512"><defs><style>.cls-1,.cls-2,.cls-3{fill:none;stroke:#231f20;stroke-linecap:round;}.cls-1,.cls-2{stroke-miterlimit:10;}.cls-1{stroke-width:16px;}.cls-2,.cls-3{stroke-width:8px;}.cls-3{stroke-linejoin:round;}</style></defs><title>icon</title><line class="cls-1" x1="416" y1="384" x2="96" y2="384"/><line class="cls-1" x1="48" y1="456" x2="464" y2="456"/><polygon class="cls-1" points="96 96 256 32 416 96 448 96 448 128 64 128 64 96 96 96"/><polygon class="cls-2" points="112 384 112 352 128 352 128 168 112 168 112 136 192 136 192 168 176 168 176 352 192 352 192 384 112 384"/><polygon class="cls-2" points="320 384 320 352 336 352 336 168 320 168 320 136 400 136 400 168 384 168 384 352 400 352 400 384 320 384"/><polygon class="cls-2" points="216 384 216 352 232 352 232 168 216 168 216 136 296 136 296 168 280 168 280 352 296 352 296 384 216 384"/><line class="cls-2" x1="128" y1="352" x2="176" y2="352"/><line class="cls-2" x1="128" y1="168" x2="176" y2="168"/><line class="cls-2" x1="232" y1="168" x2="280" y2="168"/><line class="cls-2" x1="232" y1="352" x2="280" y2="352"/><line class="cls-2" x1="336" y1="352" x2="384" y2="352"/><line class="cls-2" x1="336" y1="168" x2="384" y2="168"/><polygon class="cls-3" points="256 56 120 104 392 104 256 56"/><line class="cls-1" x1="64" y1="432" x2="448" y2="432"/><line class="cls-1" x1="80" y1="408" x2="432" y2="408"/></svg>