<svg xmlns="http://www.w3.org/2000/svg" viewBox="0 0 512 512"><defs><style>.cls-1,.cls-2{fill:none;stroke:#231f20;stroke-miterlimit:10;}.cls-1{stroke-width:8px;}.cls-2{stroke-width:16px;}</style></defs><title>icon</title><g id="Layer_3" data-name="Layer 3"><path class="cls-1" d="M480,384.91c-16,36.8,0,63.09,0,63.09"/><path class="cls-2" d="M496,384.91H192l-8,1.32-8-1.32s-16,0-16,31.55S176,448,176,448l8-1.31,8,1.31H176"/><path class="cls-1" d="M449.7,306.51c-14.3,36.8,0,63.09,0,63.09"/><path class="cls-2" d="M464,306.51H192.34l-7.15,1.32L178,306.51s-14.3,0-14.3,31.55S178,369.6,178,369.6l7.15-1.31,7.15,1.31H178"/><path class="cls-2" d="M184,91.5,133.9,448l-47.54-6.68-47.53-6.68,50.1-356.5,47.54,6.68Z"/><path class="cls-2" d="M77.8,157.36,125.33,164l47.54,6.68"/><path class="cls-2" d="M71.12,204.9l47.53,6.68,47.54,6.68"/></g></svg>