<svg id="Layer_1" data-name="Layer 1" xmlns="http://www.w3.org/2000/svg" viewBox="0 0 512 512"><defs><style>.cls-1,.cls-2,.cls-3{fill:none;stroke:#000;}.cls-1,.cls-2{stroke-width:12.85px;}.cls-2,.cls-3{stroke-linecap:square;}.cls-3{stroke-width:16px;}</style></defs><title>icon</title><path class="cls-1" d="M350.3,84.72s-16.07,20.35-10.71,57.84c4.32,30.28,16.22,48.19,25.94,92.64,6.77,30.92-1.85,86.74-109.87,93.34-86.2,5.26-100.35-35.34-105.64-66C130.21,147.38,350.3,84.72,350.3,84.72Z"/><path class="cls-1" d="M300.36,100.82c-8.43-29.66-94-50.77-94-50.77s5.94,22.11-12.77,50.77"/><path class="cls-2" d="M166.47,191.37c4.13-15.48,6.7-30.26,5.67-48.28-.9-15.77-14.79-62.23-14.79-62.23s15,7.63,35.66,19.62c7.26,4.2,15.21,8.94,23.47,14.08l.25.16c8.18,5.09,13.43,8.38,21.8,14.1"/><path class="cls-3" d="M254,369.79c0,9.23,13.33,14.56,16,15.89,0,0-16,8-16,16Z"/><path class="cls-3" d="M254,428.79c0,7.89-16,15.89-16,15.89s16,8,16,16Z"/><line class="cls-3" x1="254" y1="461.5" x2="254" y2="333.5"/></svg>