<svg xmlns="http://www.w3.org/2000/svg" viewBox="0 0 512 512">
    <defs>
        <style>
            .filled
            {
                fill:#231f20;
                stroke:none;
            }
            .line
            {
                fill:none;
                stroke:#231f20;
                stroke-linecap:round;
                stroke-miterlimit:2;
                stroke-width:24px;
            }
        </style>
    </defs>
    <title>icon</title>
    <g id="icon">
        
        <circle class="filled" cx="112" cy="96" r="32" />
        <ellipse class="filled" cx="112" cy="224" rx="48" ry="86" />

        <path class="line" d="M48,270 A48 90 0 0 1 96 152" />
        <path class="line" d="M176,270 A48 90 0 0 0 128 152" />

        <path class="line" d="M88,450 L88,270" />
        <path class="line" d="M136,450 L136,270" />

        <circle class="filled" cx="224" cy="96" r="32" />
        <ellipse class="filled" cx="224" cy="224" rx="48" ry="86" />

        <path class="line" d="M160,270 A48 90 0 0 1 208 152" />
        <path class="line" d="M288,270 A48 90 0 0 0 240 152" />
        
        <path class="line" d="M200,450 L200,270" />
        <path class="line" d="M248,450 L248,270" />

        <circle class="filled" cx="400" cy="184" r="32" />
        <ellipse class="filled" cx="400" cy="300" rx="40" ry="72" />

        <path class="line" d="M288,270 L384,240" />
        <path class="line" d="M464,346 A48 88 0 0 0 416 240" />

        <path class="line" d="M376,450 L376,270" />
        <path class="line" d="M424,450 L424,270" />

    </g>
</svg>