<svg id="Layer_1" data-name="Layer 1" xmlns="http://www.w3.org/2000/svg" viewBox="0 0 512 512"><defs><style>.cls-1,.cls-2,.cls-3,.cls-4{fill:none;stroke:#000;}.cls-1,.cls-2,.cls-3{stroke-linecap:square;}.cls-1{stroke-width:16px;}.cls-2,.cls-4{stroke-width:8px;}.cls-3{stroke-width:12px;}.cls-4{stroke-linecap:round;stroke-miterlimit:10;}</style></defs><title>icon</title><path class="cls-1" d="M278.75,256H352a32.09,32.09,0,0,1,32,32V416a32.09,32.09,0,0,1-32,32H160a32.09,32.09,0,0,1-32-32V288a32.09,32.09,0,0,1,32-32h55.75"/><rect class="cls-2" x="220" y="270" width="72" height="32" rx="16" ry="16"/><polyline class="cls-3" points="288.25 256 367 83 335 51 255 51 175 51 143 83 231 275 279 275 191 83 319 83 257 220.64"/><line class="cls-3" x1="177" y1="53" x2="191" y2="83"/><line class="cls-3" x1="332" y1="55" x2="318" y2="85"/><rect class="cls-2" x="152" y="312" width="208" height="120" rx="12" ry="12"/><line class="cls-4" x1="176" y1="344" x2="336" y2="344"/><line class="cls-4" x1="216" y1="368" x2="288" y2="368"/></svg>