<svg xmlns="http://www.w3.org/2000/svg" viewBox="0 0 512 512"><defs><style>.cls-1,.cls-2{fill:none;stroke:#231f20;stroke-width:16px;}.cls-1{stroke-linecap:round;stroke-linejoin:round;}.cls-2{stroke-miterlimit:10;}</style></defs><title>icon</title><g id="Layer_7" data-name="Layer 7"><path class="cls-1" d="M438.6,315.33s-56.09-21.43-78-43.48A223.2,223.2,0,0,1,384,256.8a221,221,0,0,1-24-16c21.43-22.28,78.63-44.13,78.63-44.13s-58,15.63-88.65,10.66A224,224,0,0,1,360,181.41a220.89,220.89,0,0,1-28.84,1.18c4.24-30.61,37.67-81.92,37.67-81.92s-37.71,46.72-65.45,60.73a223.15,223.15,0,0,1-7.09-26.89,218.75,218.75,0,0,1-22.64,17.91C259.11,125.16,256,64,256,64s-3.05,60-17.25,87.6A222.4,222.4,0,0,1,217.21,134a219.67,219.67,0,0,1-7.8,27.79c-27.8-13.49-66.26-61.14-66.26-61.14s32.77,50.31,37.53,81a221.79,221.79,0,0,1-27.76-1.56,220.79,220.79,0,0,1,10,27.06c-30.43,5.43-89.55-10.51-89.55-10.51s56.09,21.43,78,43.48a223.2,223.2,0,0,1-23.38,15,221,221,0,0,1,24,16C130.6,293.48,73.4,315.33,73.4,315.33s58-15.63,88.65-10.66A224,224,0,0,1,152,330.59a220.89,220.89,0,0,1,28.84-1.18c-4.24,30.61-37.67,81.92-37.67,81.92s37.71-46.72,65.45-60.73a223.15,223.15,0,0,1,7.09,26.89,218.75,218.75,0,0,1,22.64-17.91C252.89,386.84,256,448,256,448s3.05-60,17.25-87.6A222.4,222.4,0,0,1,294.79,378a219.67,219.67,0,0,1,7.8-27.79c27.8,13.49,66.26,61.14,66.26,61.14s-32.77-50.31-37.53-81a221.79,221.79,0,0,1,27.76,1.56,220.79,220.79,0,0,1-10-27.06C379.48,299.39,438.6,315.33,438.6,315.33Z"/><path class="cls-1" d="M256,64s4.71,92.59,29.67,100.7,83.18-64,83.18-64-50.61,77.67-35.18,98.9,104.93-2.9,104.93-2.9S352,229.76,352,256s86.6,59.33,86.6,59.33-89.51-24.13-104.93-2.9,35.18,98.9,35.18,98.9-58.22-72.14-83.18-64S256,448,256,448s-4.71-92.59-29.67-100.7-83.18,64-83.18,64,50.61-77.67,35.18-98.9-104.93,2.9-104.93,2.9S160,282.24,160,256s-86.6-59.33-86.6-59.33,89.51,24.13,104.93,2.9-35.18-98.9-35.18-98.9,58.22,72.14,83.18,64S256,64,256,64Z"/></g><g id="Layer_8" data-name="Layer 8"><circle class="cls-2" cx="256" cy="256" r="64"/></g></svg>