<svg id="Layer_1" data-name="Layer 1" xmlns="http://www.w3.org/2000/svg" viewBox="0 0 512 512"><defs><style>.cls-1{fill:none;stroke:#231f20;stroke-linecap:round;stroke-miterlimit:10;stroke-width:16px;}</style></defs><title>icon</title><path class="cls-1" d="M213.67,350.41c26.33,15.33,66.33,15.33,89.33,0"/><line class="cls-1" x1="256" y1="396" x2="256" y2="465.67"/><line class="cls-1" x1="227.14" y1="414.33" x2="227.14" y2="456"/><line class="cls-1" x1="196.11" y1="397.67" x2="196.11" y2="439.34"/><line class="cls-1" x1="171.14" y1="373.67" x2="171.14" y2="415.34"/><line class="cls-1" x1="205.07" y1="242.67" x2="205.78" y2="241.96"/><line class="cls-1" x1="309.07" y1="243.67" x2="309.78" y2="242.96"/><path class="cls-1" d="M361.08,381l-.16-25.3S363.84,328,367.25,323c12.47-18.31,37.38-67,32-82.5-2-5.83-17.34-14-17.34-14s5.41-71.16-1.45-93.51c-6-19.72-26.84-51.62-45.21-61s-80-8-80-8H256s-61.65-1.37-80,8-39.16,41.28-45.21,61c-6.86,22.35-1.46,93.51-1.46,93.51S114,234.67,112,240.5c-5.39,15.54,19.53,64.19,32,82.5,3.4,5,6.33,32.67,6.33,32.67l-.16,25.3"/><line class="cls-1" x1="284.11" y1="414.33" x2="284.11" y2="456"/><line class="cls-1" x1="315.14" y1="397.67" x2="315.14" y2="439.34"/><line class="cls-1" x1="340.11" y1="373.67" x2="340.11" y2="415.34"/><path class="cls-1" d="M272,312c-8,8-24,8-32,0l8-56"/></svg>