<svg xmlns="http://www.w3.org/2000/svg" viewBox="0 0 512 512"><defs><style>.cls-1,.cls-2{fill:none;stroke-miterlimit:10;stroke-width:16px;}.cls-1{stroke:#000;stroke-linecap:round;}.cls-2{stroke:#231f20;}</style></defs><title>icon</title><g id="unions"><polyline class="cls-1" points="368 416 320 264 192 264 144 416"/><circle class="cls-2" cx="112" cy="160" r="32"/><line class="cls-1" x1="56" y1="288" x2="72" y2="392"/><line class="cls-1" x1="136" y1="392" x2="72" y2="392"/><line class="cls-1" x1="112" y1="400" x2="112" y2="440"/><path class="cls-1" d="M160,336h-8a8,8,0,0,1-8-8V248.72c0-18-14.7-33.07-32.65-32.71A32,32,0,0,0,80,248v96a32,32,0,0,0,32,32h16"/><line class="cls-1" x1="120" y1="376" x2="144" y2="376"/><circle class="cls-2" cx="400" cy="160" r="32"/><line class="cls-1" x1="456" y1="288" x2="440" y2="392"/><line class="cls-1" x1="376" y1="392" x2="440" y2="392"/><line class="cls-1" x1="400" y1="400" x2="400" y2="440"/><path class="cls-1" d="M352,336h8a8,8,0,0,0,8-8V248.72c0-18,14.7-33.07,32.65-32.71A32,32,0,0,1,432,248v96a32,32,0,0,1-32,32H384"/><line class="cls-1" x1="392" y1="376" x2="368" y2="376"/></g></svg>