<svg id="Layer_1" data-name="Layer 1" xmlns="http://www.w3.org/2000/svg" xmlns:xlink="http://www.w3.org/1999/xlink" viewBox="0 0 2641.81 1161.81">
  <defs>
    <style>
      .cls-1, .cls-3 {
        fill: #f2f2f2;
      }

      .cls-2 {
        fill: #fff;
      }

      .cls-3 {
        stroke: #000;
        stroke-miterlimit: 10;
        stroke-width: 0.84px;
      }

      .cls-4 {
        fill: url(#New_Gradient_Swatch_1);
      }
    </style>
    <linearGradient id="New_Gradient_Swatch_1" data-name="New Gradient Swatch 1" x1="287.4" y1="762.41" x2="287.4" y2="384.26" gradientTransform="translate(59.5 162.25) rotate(-6)" gradientUnits="userSpaceOnUse">
      <stop offset="0" stop-color="#e40"/>
      <stop offset="0.45" stop-color="#f90"/>
      <stop offset="0.85" stop-color="#fc0"/>
      <stop offset="1" stop-color="#fe0"/>
    </linearGradient>
  </defs>
  <title>GCK logo full v2</title>
  <g>
    <g>
      <g>
        <path d="M195.53,1241.7c-7-66.75,27.44-112.5,85.29-118.58,44.1-4.63,78.54,11.79,97.42,55.2l-53.92,24.07c-7.73-15.14-20.61-24.83-36.79-23.13-21.85,2.3-35.77,25.44-32.54,56.18,3.27,31.15,21.63,50.08,42.66,47.87,17-1.79,27.62-13.54,31.64-33.59L387.24,1260c-8.82,48.37-36.74,74.62-83.67,79.56C245.72,1345.63,202.67,1309.66,195.53,1241.7Z" transform="translate(-186.47 -178.41)"/>
        <path d="M392.14,1221c-7-66.75,25.82-112.33,84.48-118.5,58.26-6.12,99.45,31.68,106.47,98.43,7.14,68-25.46,111.89-83.72,118C440.71,1325.14,399.29,1289,392.14,1221Zm132.29-13.9c-3.4-32.36-18.79-50.38-41.85-48-22.66,2.38-35.18,23.33-31.78,55.69s20,49.85,42.62,47.47C516.48,1259.91,527.83,1239.49,524.43,1207.13Z" transform="translate(-186.47 -178.41)"/>
        <path d="M732.71,1180.74c-3.44-32.77-13.47-46.44-37.74-43.89-25.89,2.72-34.79,19.2-31.52,50.35l11.4,108.42-58.66,6.17-21.73-206.73,58.66-6.17,2,19c11-16.29,28.64-27.14,53.72-29.78,31.55-3.32,73.39,9.47,79.73,69.74l14.12,134.31L744,1288.35Z" transform="translate(-186.47 -178.41)"/>
        <path d="M815.25,1246.09l34.26-35.91c9.39,7.6,30.74,20.08,51.38,17.91,17-1.79,28.25-7.47,27-19.2-1.06-10.11-12.09-13.86-37.75-20.57-49-10.8-76.54-23.86-80.5-61.48s29-62.36,70.7-66.74c36.41-3.83,63.19,9.72,81.29,26.22l-34.75,35.15c-16.86-12.54-28.12-14.63-41.47-13.23-14.56,1.53-23.81,7-22.87,15.9,1,9.3,20.84,15.4,42.84,18.4,31.81,6.88,70.56,17.53,75.11,60.82,4.34,41.27-26,67.77-76.17,73C870.35,1280,834.75,1268.18,815.25,1246.09Z" transform="translate(-186.47 -178.41)"/>
        <path d="M1007.2,1208.33l-10.89-103.57-28.32,3-5.4-51.38,28.32-3-6-57.45,55.32-34,9,85.36,44.91-4.72,5.4,51.38-44.91,4.72,10.29,97.9c.85,8.09,7.3,11.09,13,10.5,11.33-1.19,22.8-4.85,34.75-11.83l-1.29,50c-12.67,7.88-27.75,12.32-46,14.24C1028.53,1263.35,1011,1244.74,1007.2,1208.33Z" transform="translate(-186.47 -178.41)"/>
        <path d="M1114.7,1040.38l58.66-6.17,2,18.61c3.2-8.52,15.33-25.34,36.78-27.59,17.8-1.87,31.47,3.65,42.69,13.1l-2.07,54.21c-10.11-6.71-21.31-12.08-38.3-10.29-18.61,2-34.58,13.45-31.09,46.63l11.78,112.06-58.66,6.17Z" transform="translate(-186.47 -178.41)"/>
        <path d="M1408.72,1199.26c-10.2,15.8-29.45,27.23-54.13,29.82-30.75,3.23-73.07-10.32-79.32-69.79L1261.15,1025l58.66-6.17,11.31,107.61c3.36,32,12.66,46.52,38.15,43.85,25.08-2.64,34.47-18.35,31.12-50.31L1389,1011.55l58.66-6.17,21.73,206.73-58.66,6.17Z" transform="translate(-186.47 -178.41)"/>
        <path d="M1480.78,1106.61c-7-66.75,27.44-112.5,85.29-118.58,44.1-4.63,78.54,11.79,97.42,55.2l-53.92,24.07c-7.73-15.14-20.61-24.83-36.79-23.13-21.85,2.3-35.77,25.44-32.54,56.18,3.27,31.15,21.63,50.08,42.66,47.87,17-1.79,27.62-13.54,31.65-33.59l57.93,10.27c-8.82,48.37-36.74,74.62-83.67,79.56C1531,1210.54,1487.93,1174.57,1480.78,1106.61Z" transform="translate(-186.47 -178.41)"/>
        <path d="M1705.05,1135l-10.89-103.57-28.32,3-5.4-51.38,28.32-3-6-57.45,55.32-34,9,85.36,44.91-4.72,5.4,51.38-44.91,4.72,10.29,97.9c.85,8.09,7.3,11.09,13,10.5,11.33-1.19,22.8-4.85,34.75-11.83l-1.29,50c-12.67,7.88-27.75,12.32-46,14.24C1726.38,1190,1708.88,1171.39,1705.05,1135Z" transform="translate(-186.47 -178.41)"/>
        <path d="M1802.9,914.05c-2-18.61,11.89-34.79,30.5-36.75,19-2,35.11,11,37.06,29.65a33.68,33.68,0,0,1-30,37.11C1821.8,946,1804.81,932.26,1802.9,914.05ZM1813,967l58.66-6.17,21.73,206.73-58.66,6.17Z" transform="translate(-186.47 -178.41)"/>
        <path d="M1905.16,1062c-7-66.75,25.82-112.33,84.48-118.5,58.26-6.12,99.45,31.68,106.47,98.43,7.14,68-25.46,111.89-83.72,118C1953.73,1166.11,1912.3,1130,1905.16,1062Zm132.29-13.9c-3.4-32.36-18.79-50.38-41.85-48-22.65,2.38-35.18,23.33-31.78,55.7s20,49.85,42.62,47.47C2029.5,1100.88,2040.85,1080.46,2037.45,1048.1Z" transform="translate(-186.47 -178.41)"/>
        <path d="M2245.73,1021.71c-3.44-32.77-13.47-46.44-37.74-43.89-25.89,2.72-34.79,19.2-31.52,50.35l11.4,108.42-58.66,6.17L2107.47,936l58.66-6.17,2,19c11-16.29,28.64-27.14,53.72-29.78,31.56-3.32,73.39,9.47,79.73,69.74l14.12,134.31-58.66,6.17Z" transform="translate(-186.47 -178.41)"/>
        <path d="M2550.74,1098.45l-65.54-98.23L2471.31,1016l9.44,89.81-58.66,6.17-27.81-264.58,55.77-33.68,14.41,137.14,46.75-57.27,69.58-7.31L2524.11,954l90.55,137.73Z" transform="translate(-186.47 -178.41)"/>
        <path d="M2595,830.8c-2-18.61,11.89-34.79,30.5-36.75,19-2,35.11,11,37.07,29.64a33.68,33.68,0,0,1-30,37.11C2613.91,862.76,2596.92,849,2595,830.8Zm10.06,52.93,58.66-6.17,21.73,206.73-58.66,6.17Z" transform="translate(-186.47 -178.41)"/>
        <path d="M2722.9,1028,2712,924.43l-28.32,3-5.4-51.38,28.32-3-6-57.45,55.32-34,9,85.36,44.91-4.72,5.4,51.38-44.91,4.72,10.29,97.9c.85,8.09,7.3,11.09,13,10.5,11.33-1.19,22.8-4.85,34.75-11.83l-1.29,50c-12.67,7.88-27.75,12.32-46,14.24C2744.22,1083,2726.72,1064.41,2722.9,1028Z" transform="translate(-186.47 -178.41)"/>
      </g>
      <g>
        <path class="cls-1" d="M195.53,1241.7c-7-66.75,27.44-112.5,85.29-118.58,44.1-4.63,78.54,11.79,97.42,55.2l-53.92,24.07c-7.73-15.14-20.61-24.83-36.79-23.13-21.85,2.3-35.77,25.44-32.54,56.18,3.27,31.15,21.63,50.08,42.66,47.87,17-1.79,27.62-13.54,31.64-33.59L387.24,1260c-8.82,48.37-36.74,74.62-83.67,79.56C245.72,1345.63,202.67,1309.66,195.53,1241.7Z" transform="translate(-186.47 -178.41)"/>
        <path class="cls-1" d="M392.14,1221c-7-66.75,25.82-112.33,84.48-118.5,58.26-6.12,99.45,31.68,106.47,98.43,7.14,68-25.46,111.89-83.72,118C440.71,1325.14,399.29,1289,392.14,1221Zm132.29-13.9c-3.4-32.36-18.79-50.38-41.85-48-22.66,2.38-35.18,23.33-31.78,55.69s20,49.85,42.62,47.47C516.48,1259.91,527.83,1239.49,524.43,1207.13Z" transform="translate(-186.47 -178.41)"/>
        <path class="cls-1" d="M732.71,1180.74c-3.44-32.77-13.47-46.44-37.74-43.89-25.89,2.72-34.79,19.2-31.52,50.35l11.4,108.42-58.66,6.17-21.73-206.73,58.66-6.17,2,19c11-16.29,28.64-27.14,53.72-29.78,31.55-3.32,73.39,9.47,79.73,69.74l14.12,134.31L744,1288.35Z" transform="translate(-186.47 -178.41)"/>
        <path class="cls-1" d="M815.25,1246.09l34.26-35.91c9.39,7.6,30.74,20.08,51.38,17.91,17-1.79,28.25-7.47,27-19.2-1.06-10.11-12.09-13.86-37.75-20.57-49-10.8-76.54-23.86-80.5-61.48s29-62.36,70.7-66.74c36.41-3.83,63.19,9.72,81.29,26.22l-34.75,35.15c-16.86-12.54-28.12-14.63-41.47-13.23-14.56,1.53-23.81,7-22.87,15.9,1,9.3,20.84,15.4,42.84,18.4,31.81,6.88,70.56,17.53,75.11,60.82,4.34,41.27-26,67.77-76.17,73C870.35,1280,834.75,1268.18,815.25,1246.09Z" transform="translate(-186.47 -178.41)"/>
        <path class="cls-1" d="M1007.2,1208.33l-10.89-103.57-28.32,3-5.4-51.38,28.32-3-6-57.45,55.32-34,9,85.36,44.91-4.72,5.4,51.38-44.91,4.72,10.29,97.9c.85,8.09,7.3,11.09,13,10.5,11.33-1.19,22.8-4.85,34.75-11.83l-1.29,50c-12.67,7.88-27.75,12.32-46,14.24C1028.53,1263.35,1011,1244.74,1007.2,1208.33Z" transform="translate(-186.47 -178.41)"/>
        <path class="cls-1" d="M1114.7,1040.38l58.66-6.17,2,18.61c3.2-8.52,15.33-25.34,36.78-27.59,17.8-1.87,31.47,3.65,42.69,13.1l-2.07,54.21c-10.11-6.71-21.31-12.08-38.3-10.29-18.61,2-34.58,13.45-31.09,46.63l11.78,112.06-58.66,6.17Z" transform="translate(-186.47 -178.41)"/>
        <path class="cls-1" d="M1408.72,1199.26c-10.2,15.8-29.45,27.23-54.13,29.82-30.75,3.23-73.07-10.32-79.32-69.79L1261.15,1025l58.66-6.17,11.31,107.61c3.36,32,12.66,46.52,38.15,43.85,25.08-2.64,34.47-18.35,31.12-50.31L1389,1011.55l58.66-6.17,21.73,206.73-58.66,6.17Z" transform="translate(-186.47 -178.41)"/>
        <path class="cls-1" d="M1480.78,1106.61c-7-66.75,27.44-112.5,85.29-118.58,44.1-4.63,78.54,11.79,97.42,55.2l-53.92,24.07c-7.73-15.14-20.61-24.83-36.79-23.13-21.85,2.3-35.77,25.44-32.54,56.18,3.27,31.15,21.63,50.08,42.66,47.87,17-1.79,27.62-13.54,31.65-33.59l57.93,10.27c-8.82,48.37-36.74,74.62-83.67,79.56C1531,1210.54,1487.93,1174.57,1480.78,1106.61Z" transform="translate(-186.47 -178.41)"/>
        <path class="cls-1" d="M1705.05,1135l-10.89-103.57-28.32,3-5.4-51.38,28.32-3-6-57.45,55.32-34,9,85.36,44.91-4.72,5.4,51.38-44.91,4.72,10.29,97.9c.85,8.09,7.3,11.09,13,10.5,11.33-1.19,22.8-4.85,34.75-11.83l-1.29,50c-12.67,7.88-27.75,12.32-46,14.24C1726.38,1190,1708.88,1171.39,1705.05,1135Z" transform="translate(-186.47 -178.41)"/>
        <path class="cls-1" d="M1802.9,914.05c-2-18.61,11.89-34.79,30.5-36.75,19-2,35.11,11,37.06,29.65a33.68,33.68,0,0,1-30,37.11C1821.8,946,1804.81,932.26,1802.9,914.05ZM1813,967l58.66-6.17,21.73,206.73-58.66,6.17Z" transform="translate(-186.47 -178.41)"/>
        <path class="cls-1" d="M1905.16,1062c-7-66.75,25.82-112.33,84.48-118.5,58.26-6.12,99.45,31.68,106.47,98.43,7.14,68-25.46,111.89-83.72,118C1953.73,1166.11,1912.3,1130,1905.16,1062Zm132.29-13.9c-3.4-32.36-18.79-50.38-41.85-48-22.65,2.38-35.18,23.33-31.78,55.7s20,49.85,42.62,47.47C2029.5,1100.88,2040.85,1080.46,2037.45,1048.1Z" transform="translate(-186.47 -178.41)"/>
        <path class="cls-1" d="M2245.73,1021.71c-3.44-32.77-13.47-46.44-37.74-43.89-25.89,2.72-34.79,19.2-31.52,50.35l11.4,108.42-58.66,6.17L2107.47,936l58.66-6.17,2,19c11-16.29,28.64-27.14,53.72-29.78,31.56-3.32,73.39,9.47,79.73,69.74l14.12,134.31-58.66,6.17Z" transform="translate(-186.47 -178.41)"/>
        <path class="cls-1" d="M2550.74,1098.45l-65.54-98.23L2471.31,1016l9.44,89.81-58.66,6.17-27.81-264.58,55.77-33.68,14.41,137.14,46.75-57.27,69.58-7.31L2524.11,954l90.55,137.73Z" transform="translate(-186.47 -178.41)"/>
        <path class="cls-1" d="M2595,830.8c-2-18.61,11.89-34.79,30.5-36.75,19-2,35.11,11,37.07,29.64a33.68,33.68,0,0,1-30,37.11C2613.91,862.76,2596.92,849,2595,830.8Zm10.06,52.93,58.66-6.17,21.73,206.73-58.66,6.17Z" transform="translate(-186.47 -178.41)"/>
        <path class="cls-1" d="M2722.9,1028,2712,924.43l-28.32,3-5.4-51.38,28.32-3-6-57.45,55.32-34,9,85.36,44.91-4.72,5.4,51.38-44.91,4.72,10.29,97.9c.85,8.09,7.3,11.09,13,10.5,11.33-1.19,22.8-4.85,34.75-11.83l-1.29,50c-12.67,7.88-27.75,12.32-46,14.24C2744.22,1083,2726.72,1064.41,2722.9,1028Z" transform="translate(-186.47 -178.41)"/>
      </g>
    </g>
    <g>
      <g>
        <path class="cls-2" d="M965,453.43,997.6,764c14.23,135.41.43,202.34-154.94,231.33L772,910.5c94-18.07,129.55-27,124.26-84.5-20.56,23.74-49,29-72.56,31.44-92,9.67-162.92-49.84-176.68-180.84-12.68-120.7,43.36-203.23,135.31-212.9,28.69-3,53.43-1.15,77.67,17.13l-1.7-16.19Zm-94.22,129.7c-10.41-7.09-22.41-22.2-61.4-18.1-41.2,4.33-62,40-55.65,100.35,5.64,53.72,27.55,92.35,75.37,87.32,31.63-3.33,44.84-12.16,56.46-29Z" transform="translate(-186.47 -178.41)"/>
        <path class="cls-2" d="M1025.15,636.84c-12.68-120.7,48.51-203.77,158.12-215.3,94.9-10,175.23,39.61,187.91,160.31,1.47,14,3.79,36.06,2.86,55.51l-240.56,25.29c7.46,49.81,41.92,66.28,81.65,62.1,37.52-3.94,59.82-18.19,80.42-48.64l68.29,55.32c-30.17,45.58-74.47,77-139.2,83.84C1113.55,827,1038.14,760.48,1025.15,636.84Zm241.14-69.26c-9.32-39.2-33.79-59.69-77.93-55.05-37.52,3.94-61.6,29.54-62.58,69.83Z" transform="translate(-186.47 -178.41)"/>
        <path class="cls-2" d="M1641.58,564.59c-6.26-59.61-24.5-84.48-68.63-79.84-47.08,5-63.27,34.93-57.32,91.6l20.72,197.23-106.67,11.22-39.51-376.07,106.67-11.22,3.63,34.59c19.94-29.63,52.08-49.38,97.69-54.17,57.38-6,133.46,17.22,145,126.88l25.67,244.33-106.67,11.22Z" transform="translate(-186.47 -178.41)"/>
        <path class="cls-2" d="M1785.79,556.86c-12.68-120.7,47-203.62,135.31-212.9,35.31-3.71,61.21,9.19,79,29.64l-14.3-136.15,101.64-59.05,55.83,531.36L2036.58,721l-3.25-30.91c-11.19,28-35.55,43.92-72.33,47.79C1867.57,747.68,1799.4,686.39,1785.79,556.86Zm238.42,46.36-14.61-139.09c-10-10.11-30.58-22.08-60.75-18.91-41.93,4.41-62.73,40.08-56.39,100.43s30.5,92,76.11,87.24C1999.46,629.64,2014.14,620.66,2024.21,603.23Z" transform="translate(-186.47 -178.41)"/>
        <path class="cls-2" d="M2163.91,517.1c-12.68-120.7,48.51-203.77,158.12-215.3,94.9-10,175.23,39.61,187.91,160.31,1.47,14,3.79,36.06,2.86,55.51l-240.56,25.29c7.46,49.81,41.92,66.28,81.65,62.1,37.52-3.94,59.82-18.19,80.42-48.64l68.29,55.32c-30.17,45.58-74.47,77-139.2,83.84C2252.32,707.22,2176.9,640.74,2163.91,517.1Zm241.14-69.26c-9.32-39.2-33.79-59.69-77.93-55.05-37.52,3.94-61.6,29.54-62.58,69.83Z" transform="translate(-186.47 -178.41)"/>
        <path class="cls-2" d="M2528.94,289l106.67-11.22,3.56,33.85c5.81-15.49,27.88-46.09,66.87-50.19,32.37-3.4,57.22,6.63,77.63,23.83l-3.77,98.62c-18.39-12.2-38.75-22-69.65-18.72-33.84,3.56-62.88,24.47-56.54,84.82l21.42,203.86-106.67,11.22Z" transform="translate(-186.47 -178.41)"/>
      </g>
      <g>
        <path class="cls-3" d="M318.78,711.12,187.25,535.21l114-12L432.8,699.13l-92,200.16-114,12Zm169.93-17.87L357.18,517.34l114.76-12.07L603.47,681.18l-92,200.16L396.69,893.41Z" transform="translate(-186.47 -178.41)"/>
        <path class="cls-4" d="M318.78,711.12,187.25,535.21l114-12L432.8,699.13l-92,200.16-114,12Zm169.93-17.87L357.18,517.34l114.76-12.07L603.47,681.18l-92,200.16L396.69,893.41Z" transform="translate(-186.47 -178.41)"/>
      </g>
    </g>
  </g>
</svg>
