<svg id="Layer_1" data-name="Layer 1" xmlns="http://www.w3.org/2000/svg" xmlns:xlink="http://www.w3.org/1999/xlink" viewBox="0 0 2642.03 968.31">
  <defs>
    <style>
      .cls-1, .cls-3 {
        fill: #999;
      }

      .cls-2 {
        fill: #999;
      }

      .cls-3 {
      }

      .cls-4 {
        fill: #998fdf;
      }
    </style>
    <linearGradient id="New_Gradient_Swatch_1" data-name="New Gradient Swatch 1" x1="250.74" y1="762.42" x2="250.74" y2="384.27" gradientTransform="translate(149.99 71.24)" gradientUnits="userSpaceOnUse">
      <stop offset="0" stop-color="#e40"/>
      <stop offset="0.45" stop-color="#f90"/>
      <stop offset="0.85" stop-color="#fc0"/>
      <stop offset="1" stop-color="#fe0"/>
    </linearGradient>
  </defs>
  <title>GCK logo straight</title>
  <g>
    <g>
      <path d="M189.15,1159c0-67.12,39.05-109,97.22-109,44.34,0,76.88,19.93,91.12,65.09l-56.14,18.31c-6.1-15.86-17.9-26.85-34.17-26.85-22,0-38.24,21.56-38.24,52.48,0,31.32,16.27,52.07,37.42,52.07,17.08,0,28.88-10.58,35-30.1l56.54,16.27c-13.83,47.19-44.34,70.37-91.53,70.37C228.21,1267.62,189.15,1227.34,189.15,1159Z" transform="translate(-189.15 -299.3)"/>
      <path d="M386.85,1159c0-67.12,37.42-109,96.41-109,58.58,0,95.59,41.9,95.59,109,0,68.34-37,108.61-95.59,108.61C424.28,1267.62,386.85,1227.34,386.85,1159Zm133,0c0-32.54-13.42-52.07-36.61-52.07-22.78,0-37.42,19.53-37.42,52.07s14.64,51.66,37.42,51.66C506.45,1210.67,519.87,1191.55,519.87,1159Z" transform="translate(-189.15 -299.3)"/>
      <path d="M729.77,1154.53c0-32.95-8.54-47.59-32.95-47.59-26,0-36.61,15.46-36.61,46.78v109h-59V1054.87h59V1074c12.61-15.05,31.32-24,56.54-24,31.73,0,72,17.08,72,77.7v135.05h-59Z" transform="translate(-189.15 -299.3)"/>
      <path d="M805,1228.16,842.85,1196c8.54,8.54,28.48,23.19,49.22,23.19,17.08,0,28.88-4.47,28.88-16.27,0-10.17-10.58-15.05-35.39-24.41-47.59-15.86-73.63-31.73-73.63-69.56s35.39-59,77.29-59c36.61,0,61.83,16.27,78.1,34.58l-38.24,31.32c-15.46-14.24-26.44-17.49-39.86-17.49-14.64,0-24.41,4.47-24.41,13.42,0,9.36,19.12,17.49,40.68,22.78,30.92,10.17,68.34,24.81,68.34,68.34,0,41.49-32.95,64.68-83.39,64.68C856.27,1267.62,822.1,1252.16,805,1228.16Z" transform="translate(-189.15 -299.3)"/>
      <path d="M999.87,1210.67V1106.53H971.39v-51.66h28.47V997.1L1058.45,969v85.83h45.15v51.66h-45.15V1205c0,8.14,6.1,11.8,11.8,11.8,11.39,0,23.19-2.44,35.8-8.14l-6.51,49.63c-13.42,6.51-28.88,9.36-47.19,9.36C1015.33,1267.62,999.87,1247.28,999.87,1210.67Z" transform="translate(-189.15 -299.3)"/>
      <path d="M1124.34,1054.87h59v18.71c4.07-8.14,17.9-23.59,39.46-23.59,17.9,0,30.92,6.92,41.08,17.49l-7.73,53.7c-9.36-7.73-19.93-14.24-37-14.24-18.71,0-35.8,9.76-35.8,43.12v112.68h-59Z" transform="translate(-189.15 -299.3)"/>
      <path d="M1400.14,1243.62c-11.8,14.64-32.14,24-56.95,24-30.92,0-71.59-17.9-71.59-77.7V1054.87h59v108.2c0,32.14,7.73,47.59,33.36,47.59,25.22,0,36.2-14.64,36.2-46.78v-109h59v207.87h-59Z" transform="translate(-189.15 -299.3)"/>
      <path d="M1481.49,1159c0-67.12,39.05-109,97.22-109,44.34,0,76.88,19.93,91.12,65.09l-56.14,18.31c-6.1-15.86-17.9-26.85-34.17-26.85-22,0-38.24,21.56-38.24,52.48,0,31.32,16.27,52.07,37.42,52.07,17.08,0,28.88-10.58,35-30.1l56.54,16.27c-13.83,47.19-44.34,70.37-91.53,70.37C1520.54,1267.62,1481.49,1227.34,1481.49,1159Z" transform="translate(-189.15 -299.3)"/>
      <path d="M1701.56,1210.67V1106.53h-28.47v-51.66h28.47V997.1L1760.14,969v85.83h45.15v51.66h-45.15V1205c0,8.14,6.1,11.8,11.8,11.8,11.39,0,23.19-2.44,35.8-8.14l-6.51,49.63c-13.42,6.51-28.88,9.36-47.19,9.36C1717,1267.62,1701.56,1247.28,1701.56,1210.67Z" transform="translate(-189.15 -299.3)"/>
      <path d="M1822,1001.17c0-18.71,15.46-33.36,34.17-33.36,19.12,0,33.76,14.64,33.76,33.36a33.68,33.68,0,0,1-33.76,33.76C1837.42,1034.94,1822,1019.48,1822,1001.17Zm4.47,53.7h59v207.87h-59Z" transform="translate(-189.15 -299.3)"/>
      <path d="M1908.2,1159c0-67.12,37.42-109,96.41-109,58.58,0,95.59,41.9,95.59,109,0,68.34-37,108.61-95.59,108.61C1945.63,1267.62,1908.2,1227.34,1908.2,1159Zm133,0c0-32.54-13.42-52.07-36.61-52.07-22.78,0-37.42,19.53-37.42,52.07s14.64,51.66,37.42,51.66C2027.8,1210.67,2041.22,1191.55,2041.22,1159Z" transform="translate(-189.15 -299.3)"/>
      <path d="M2251.12,1154.53c0-32.95-8.54-47.59-32.95-47.59-26,0-36.61,15.46-36.61,46.78v109h-59V1054.87h59V1074c12.61-15.05,31.32-24,56.54-24,31.73,0,72,17.08,72,77.7v135.05h-59Z" transform="translate(-189.15 -299.3)"/>
      <path d="M2546.44,1262.73l-54.92-104.54-15.46,14.24v90.31h-59v-266l59-27.66v137.9l52.48-52.07h70L2535,1116.29l75.66,146.44Z" transform="translate(-189.15 -299.3)"/>
      <path d="M2618.44,1001.17c0-18.71,15.46-33.36,34.17-33.36,19.12,0,33.76,14.64,33.76,33.36a33.68,33.68,0,0,1-33.76,33.76C2633.9,1034.94,2618.44,1019.48,2618.44,1001.17Zm4.47,53.7h59v207.87h-59Z" transform="translate(-189.15 -299.3)"/>
      <path d="M2725,1210.67V1106.53h-28.47v-51.66H2725V997.1L2783.59,969v85.83h45.15v51.66h-45.15V1205c0,8.14,6.1,11.8,11.8,11.8,11.39,0,23.19-2.44,35.8-8.14l-6.51,49.63c-13.42,6.51-28.88,9.36-47.19,9.36C2740.47,1267.62,2725,1247.28,2725,1210.67Z" transform="translate(-189.15 -299.3)"/>
    </g>
    <g>
      <path class="cls-1" d="M189.15,1159c0-67.12,39.05-109,97.22-109,44.34,0,76.88,19.93,91.12,65.09l-56.14,18.31c-6.1-15.86-17.9-26.85-34.17-26.85-22,0-38.24,21.56-38.24,52.48,0,31.32,16.27,52.07,37.42,52.07,17.08,0,28.88-10.58,35-30.1l56.54,16.27c-13.83,47.19-44.34,70.37-91.53,70.37C228.21,1267.62,189.15,1227.34,189.15,1159Z" transform="translate(-189.15 -299.3)"/>
      <path class="cls-1" d="M386.85,1159c0-67.12,37.42-109,96.41-109,58.58,0,95.59,41.9,95.59,109,0,68.34-37,108.61-95.59,108.61C424.28,1267.62,386.85,1227.34,386.85,1159Zm133,0c0-32.54-13.42-52.07-36.61-52.07-22.78,0-37.42,19.53-37.42,52.07s14.64,51.66,37.42,51.66C506.45,1210.67,519.87,1191.55,519.87,1159Z" transform="translate(-189.15 -299.3)"/>
      <path class="cls-1" d="M729.77,1154.53c0-32.95-8.54-47.59-32.95-47.59-26,0-36.61,15.46-36.61,46.78v109h-59V1054.87h59V1074c12.61-15.05,31.32-24,56.54-24,31.73,0,72,17.08,72,77.7v135.05h-59Z" transform="translate(-189.15 -299.3)"/>
      <path class="cls-1" d="M805,1228.16,842.85,1196c8.54,8.54,28.48,23.19,49.22,23.19,17.08,0,28.88-4.47,28.88-16.27,0-10.17-10.58-15.05-35.39-24.41-47.59-15.86-73.63-31.73-73.63-69.56s35.39-59,77.29-59c36.61,0,61.83,16.27,78.1,34.58l-38.24,31.32c-15.46-14.24-26.44-17.49-39.86-17.49-14.64,0-24.41,4.47-24.41,13.42,0,9.36,19.12,17.49,40.68,22.78,30.92,10.17,68.34,24.81,68.34,68.34,0,41.49-32.95,64.68-83.39,64.68C856.27,1267.62,822.1,1252.16,805,1228.16Z" transform="translate(-189.15 -299.3)"/>
      <path class="cls-1" d="M999.87,1210.67V1106.53H971.39v-51.66h28.47V997.1L1058.45,969v85.83h45.15v51.66h-45.15V1205c0,8.14,6.1,11.8,11.8,11.8,11.39,0,23.19-2.44,35.8-8.14l-6.51,49.63c-13.42,6.51-28.88,9.36-47.19,9.36C1015.33,1267.62,999.87,1247.28,999.87,1210.67Z" transform="translate(-189.15 -299.3)"/>
      <path class="cls-1" d="M1124.34,1054.87h59v18.71c4.07-8.14,17.9-23.59,39.46-23.59,17.9,0,30.92,6.92,41.08,17.49l-7.73,53.7c-9.36-7.73-19.93-14.24-37-14.24-18.71,0-35.8,9.76-35.8,43.12v112.68h-59Z" transform="translate(-189.15 -299.3)"/>
      <path class="cls-1" d="M1400.14,1243.62c-11.8,14.64-32.14,24-56.95,24-30.92,0-71.59-17.9-71.59-77.7V1054.87h59v108.2c0,32.14,7.73,47.59,33.36,47.59,25.22,0,36.2-14.64,36.2-46.78v-109h59v207.87h-59Z" transform="translate(-189.15 -299.3)"/>
      <path class="cls-1" d="M1481.49,1159c0-67.12,39.05-109,97.22-109,44.34,0,76.88,19.93,91.12,65.09l-56.14,18.31c-6.1-15.86-17.9-26.85-34.17-26.85-22,0-38.24,21.56-38.24,52.48,0,31.32,16.27,52.07,37.42,52.07,17.08,0,28.88-10.58,35-30.1l56.54,16.27c-13.83,47.19-44.34,70.37-91.53,70.37C1520.54,1267.62,1481.49,1227.34,1481.49,1159Z" transform="translate(-189.15 -299.3)"/>
      <path class="cls-1" d="M1701.56,1210.67V1106.53h-28.47v-51.66h28.47V997.1L1760.14,969v85.83h45.15v51.66h-45.15V1205c0,8.14,6.1,11.8,11.8,11.8,11.39,0,23.19-2.44,35.8-8.14l-6.51,49.63c-13.42,6.51-28.88,9.36-47.19,9.36C1717,1267.62,1701.56,1247.28,1701.56,1210.67Z" transform="translate(-189.15 -299.3)"/>
      <path class="cls-1" d="M1822,1001.17c0-18.71,15.46-33.36,34.17-33.36,19.12,0,33.76,14.64,33.76,33.36a33.68,33.68,0,0,1-33.76,33.76C1837.42,1034.94,1822,1019.48,1822,1001.17Zm4.47,53.7h59v207.87h-59Z" transform="translate(-189.15 -299.3)"/>
      <path class="cls-1" d="M1908.2,1159c0-67.12,37.42-109,96.41-109,58.58,0,95.59,41.9,95.59,109,0,68.34-37,108.61-95.59,108.61C1945.63,1267.62,1908.2,1227.34,1908.2,1159Zm133,0c0-32.54-13.42-52.07-36.61-52.07-22.78,0-37.42,19.53-37.42,52.07s14.64,51.66,37.42,51.66C2027.8,1210.67,2041.22,1191.55,2041.22,1159Z" transform="translate(-189.15 -299.3)"/>
      <path class="cls-1" d="M2251.12,1154.53c0-32.95-8.54-47.59-32.95-47.59-26,0-36.61,15.46-36.61,46.78v109h-59V1054.87h59V1074c12.61-15.05,31.32-24,56.54-24,31.73,0,72,17.08,72,77.7v135.05h-59Z" transform="translate(-189.15 -299.3)"/>
      <path class="cls-1" d="M2546.44,1262.73l-54.92-104.54-15.46,14.24v90.31h-59v-266l59-27.66v137.9l52.48-52.07h70L2535,1116.29l75.66,146.44Z" transform="translate(-189.15 -299.3)"/>
      <path class="cls-1" d="M2618.44,1001.17c0-18.71,15.46-33.36,34.17-33.36,19.12,0,33.76,14.64,33.76,33.36a33.68,33.68,0,0,1-33.76,33.76C2633.9,1034.94,2618.44,1019.48,2618.44,1001.17Zm4.47,53.7h59v207.87h-59Z" transform="translate(-189.15 -299.3)"/>
      <path class="cls-1" d="M2725,1210.67V1106.53h-28.47v-51.66H2725V997.1L2783.59,969v85.83h45.15v51.66h-45.15V1205c0,8.14,6.1,11.8,11.8,11.8,11.39,0,23.19-2.44,35.8-8.14l-6.51,49.63c-13.42,6.51-28.88,9.36-47.19,9.36C2740.47,1267.62,2725,1247.28,2725,1210.67Z" transform="translate(-189.15 -299.3)"/>
    </g>
  </g>
  <g>
    <g>
      <path class="cls-2" d="M983.41,455.49V767.77c0,136.16-20.72,201.28-178.28,213.87l-61.39-91.76c95.42-8.14,131.67-13.33,132.41-71-22.93,21.46-51.78,23.68-75.45,23.68-92.46,0-156.81-66.59-156.81-198.31,0-121.36,64.36-197.58,156.82-197.59,28.85,0,53.26,4.44,75.45,25.16V455.5ZM876.14,574.64c-9.62-8.14-20-24.42-59.18-24.42-41.42,0-65.83,33.3-65.84,94,0,54,17.75,94.72,65.83,94.72,31.81,0,45.86-7.4,59.18-22.94Z" transform="translate(-189.15 -299.3)"/>
      <path class="cls-2" d="M1024.08,644.19c0-121.36,69.54-197.58,179.75-197.59,95.42,0,170.13,57.71,170.12,179.07,0,14.06,0,36.26-3,55.5H1129.12c2.22,50.32,34.76,70.3,74.71,70.3,37.72,0,61.4-11.84,85.07-40L1351,773.68c-34.77,42.18-82.11,68.82-147.2,68.83C1092.13,842.51,1024.08,768.51,1024.08,644.19Zm247.06-43.67c-5.18-40-27.37-62.9-71.75-62.9-37.72,0-64.35,22.94-69.53,62.9Z" transform="translate(-189.15 -299.3)"/>
      <path class="cls-2" d="M1644.69,636.77c0-59.94-15.53-86.58-59.91-86.58-47.34,0-66.57,28.12-66.58,85.1V833.61H1410.94V455.47h107.26v34.78c22.93-27.38,57-43.66,102.82-43.66,57.7,0,130.93,31.07,130.92,141.34V833.6H1644.68Z" transform="translate(-189.15 -299.3)"/>
      <path class="cls-2" d="M1788.92,644.16c0-121.36,68.06-197.58,156.82-197.59,35.51,0,59.92,15.54,75.45,37.74V347.41l107.26-48.1,0,534.28H2021.18V802.51c-14.05,26.64-39.95,40-76.93,40C1850.31,842.48,1788.92,774.4,1788.92,644.16Zm232.26,71V575.33c-8.88-11.1-28.11-25.16-58.44-25.16-42.16,0-66.57,33.3-66.58,94s20.71,94.72,66.57,94.72C1993.82,738.87,2009.35,731.47,2021.19,715.19Z" transform="translate(-189.15 -299.3)"/>
      <path class="cls-2" d="M2169.13,644.14c0-121.36,69.54-197.58,179.76-197.59,95.42,0,170.13,57.71,170.12,179.07,0,14.06,0,36.26-3,55.5H2274.17c2.22,50.32,34.76,70.3,74.71,70.3,37.72,0,61.4-11.84,85.07-40l62.13,62.16c-34.77,42.18-82.11,68.82-147.2,68.83C2237.18,842.46,2169.13,768.46,2169.13,644.14Zm247.06-43.67c-5.18-40-27.37-62.9-71.75-62.9-37.72,0-64.35,22.94-69.53,62.9Z" transform="translate(-189.15 -299.3)"/>
      <path class="cls-2" d="M2556,455.43h107.26v34c7.4-14.8,32.55-42.92,71.75-42.92,32.55,0,56.22,12.58,74.71,31.82L2795.66,576c-17-14.06-36.24-25.9-67.31-25.9-34,0-65.09,17.76-65.1,78.44v205H2556Z" transform="translate(-189.15 -299.3)"/>
    </g>
    <g>
      <path class="cls-3" d="M313.82,644.22,201.4,455.53H316l112.43,188.7L316,833.66H201.38Zm170.87,0L372.27,455.52H487.66l112.43,188.7L487.64,833.65H372.25Z" transform="translate(-189.15 -299.3)"/>
      <path class="cls-4" d="M313.82,644.22,201.4,455.53H316l112.43,188.7L316,833.66H201.38Zm170.87,0L372.27,455.52H487.66l112.43,188.7L487.64,833.65H372.25Z" transform="translate(-189.15 -299.3)"/>
    </g>
  </g>
</svg>
