<svg xmlns="http://www.w3.org/2000/svg" viewBox="0 0 200 200" x="0px" y="0px">
    <circle cx="100" cy="100" r="100" style="fill: #9980ff"/>
    <path d="M 75 75 h 28 c 12 0 16 0 12 12 l -12 36 c -10 35 10 37 20 35  c -10 5 -53 14 -40 -22 l 16 -48 Z" stroke="white" fill="white" stroke-width="14" stroke-linecap="round" stroke-linejoin="round"/>
    <!-- <path d="M 75 75 h 28 c 12 0 16 0 12 12 l -12 36 c -10 35 10 32 20 30 c 10 -2 10 0 0 5 c -10 5 -53 14 -45 -10 l 20 -64 Z" stroke="white" fill="white" stroke-width="14" stroke-linecap="round" stroke-linejoin="round"/> -->
    
    <circle cx="110" cy="40" r="16" style="fill:white"/>
</svg>
