<svg xmlns="http://www.w3.org/2000/svg" viewBox="0 0 512 512" x="0px" y="0px">
    <defs>
        <style>
            .filled {
                fill: white;
                stroke: black;
                stroke-linecap: round;
                stroke-linejoin: round;
                stroke-miterlimit: 2;
                stroke-width: 16px;
            }

            .text-superbold {
                font-size: 400px;
                font-weight: 300;
                fill: white;
                stroke: white;
                stroke-width: 48px;
                stroke-linecap: round;
                stroke-linejoin: round;
                font-family: Overpass;
                letter-spacing: -0.08em;
            }
        </style>
    </defs>
    <circle cx="256" cy="256" r="255" style="fill: #444"/>
    <g transform="translate(32,256) scale(0.022,0.022) "
fill="white" stroke="white" stroke-width="512" stroke-linejoin="round" stroke-linecap="round">
<path d="M9322 4437 c730 -1225 1620 -2720 1979 -3322 359 -602 652 -1099
652 -1105 0 -5 -618 -1049 -1373 -2320 -754 -1270 -1647 -2772 -1982 -3337
l-611 -1028 -2018 0 c-1400 0 -2019 3 -2019 10 0 6 65 120 144 253 79 133 651
1097 1271 2142 620 1045 1443 2431 1828 3079 385 649 702 1187 704 1195 2 9
-231 410 -518 891 -287 481 -1169 1962 -1961 3290 -792 1328 -1449 2430 -1460
2448 l-20 32 2029 0 2028 -1 1327 -2227z m6148 -159 c782 -1314 1675 -2811
1983 -3327 429 -721 557 -943 550 -955 -5 -9 -302 -509 -660 -1111 -357 -602
-1227 -2067 -1933 -3255 -706 -1188 -1302 -2191 -1325 -2230 l-41 -70 -2037
-3 c-1120 -1 -2037 0 -2037 3 0 2 26 48 59 102 32 54 331 557 663 1118 333
561 1198 2018 1922 3239 725 1220 1315 2223 1313 2230 -3 6 -255 432 -562 946
-1099 1843 -3342 5606 -3369 5653 l-28 47 2040 0 2039 0 1423 -2387z"/>
</g>
</svg>
