<svg xmlns="http://www.w3.org/2000/svg" viewBox="0 0 512 512">
    <defs>
        <style>
            .filled {
                fill: white;
                stroke: none;
                stroke-width: 8px
            }

            .line {
                fill: none;
                stroke: white;
                stroke-linecap: round;
                stroke-miterlimit: 2;
                stroke-width: 32px;
            }

            .line-2 {
                fill: none;
                stroke: black;
                stroke-linecap: round;
                stroke-miterlimit: 2;
                stroke-width: 56px;
            }

            .line-thick {
                fill: none;
                stroke: black;
                stroke-linecap: round;
                stroke-miterlimit: 2;
                stroke-width: 24px;
            }

            .line-extra-thick {
                fill: none;
                stroke: black;
                stroke-linecap: round;
                stroke-miterlimit: 2;
                stroke-width: 32px;
            }

            .text {
                font-size: 300px;
                font-weight: 100;
                fill: black;
                stroke: black;
                font-family: Overpass-Thin, Overpass;
                letter-spacing: -0.08em;
            }
        </style>
    </defs>
    <title>Chain links</title>
    <g id="icon">
        <g transform='rotate(45 256 256)'>
            <path class="line-2" d="M 192 160 v -96 
                    a 64 64 0 0 1 64 -64 
                    a 64 64 0 0 1 64 64
                    v 128
                    a 64 64 0 0 1 -64 64" transform='translate(0 32) rotate(0 256 256)' />

            <path class="line-2" d="M 192 160 v -96 
                    a 64 64 0 0 1 64 -64 
                    a 64 64 0 0 1 64 64
                    v 128
                    a 64 64 0 0 1 -64 64" transform='translate(0 -32) rotate(180 256 256)' />

            <path class="line" d="M 192 160 v -96 
                    a 64 64 0 0 1 64 -64 
                    a 64 64 0 0 1 64 64
                    v 128
                    a 64 64 0 0 1 -64 64" transform='translate(0 32) rotate(0 256 256)' />

            <path class="line" d="M 192 160 v -96 
                    a 64 64 0 0 1 64 -64 
                    a 64 64 0 0 1 64 64
                    v 128
                    a 64 64 0 0 1 -64 64" transform='translate(0 -32) rotate(180 256 256)' />
        </g>
    </g>
</svg>