<svg id="Layer_1" data-name="Layer 1" xmlns="http://www.w3.org/2000/svg" viewBox="0 0 512 512">
    <defs>
        <style>
            .filled {
                fill: white;
                stroke: black;
                stroke-linecap: round;
                stroke-miterlimit: 10;
                stroke-width: 16px;
            }

            .line {
                fill: none;
                stroke: black;
                stroke-linecap: round;
                stroke-miterlimit: 2;
                stroke-width: 16px;
            }

            .line-extra-thick {
                fill: none;
                stroke: black;
                stroke-linecap: round;
                stroke-miterlimit: 2;
                stroke-width: 24px;
            }
        </style>
    </defs>
    <title>icon</title>
    <path class="filled"
        d="M361.08,364l-.16-8S363.84,328,367.25,323c12.47-18.31,37.38-67,32-82.5-2-5.83-17.34-14-17.34-14s5.41-71.16-1.45-93.51c-6-19.72-26.84-51.62-45.21-61s-80-8-80-8H256s-61.65-1.37-80,8-39.16,41.28-45.21,61c-6.86,22.35-1.46,93.51-1.46,93.51S114,234.67,112,240.5c-5.39,15.54,19.53,64.19,32,82.5,3.4,5,6.33,32.67,6.33,32.67l-.16,8c50,100,150,100,208,0" />
        
        <path class="line" d="M256,112 L256,380" />
        <path class="line-extra-thick" d="M240,128 L256,112 L272,128" />
        <path class="line-extra-thick" d="M240,370 L256,386 L272,370" />
</svg>