<svg xmlns="http://www.w3.org/2000/svg" viewBox="0 0 512 512"><defs><style>.cls-1,.cls-2,.cls-3{fill:none;stroke:#231f20;stroke-miterlimit:10;}.cls-1,.cls-3{stroke-width:16px;}.cls-2{stroke-width:8px;}.cls-3{stroke-linecap:round;}</style></defs><title>icon</title><g id="Layer_6" data-name="Layer 6"><path class="cls-1" d="M384,48c0,141.38-57.31,256-128,256S128,189.38,128,48Z"/><line class="cls-1" x1="208" y1="288" x2="184" y2="368"/><line class="cls-1" x1="304" y1="288" x2="328" y2="368"/><line class="cls-1" x1="144" y1="368" x2="144" y2="480"/><line class="cls-1" x1="368" y1="368" x2="368" y2="480"/><line class="cls-1" x1="144" y1="368" x2="368" y2="368"/><line class="cls-1" x1="144" y1="472" x2="368" y2="472"/><path class="cls-1" d="M358.31,216a49.69,49.69,0,0,0,18-96"/><rect class="cls-2" x="208" y="400" width="96" height="48" rx="12" ry="12"/><line class="cls-1" x1="128" y1="472" x2="384" y2="472"/><path class="cls-3" d="M255.76,112c12.17,24.66,12.78,25.25,40.24,29.24-19.69,19.19-20.06,19.95-15.37,47.3-24.34-12.8-25.18-12.91-49.74,0,4.65-27.1,4.5-27.93-15.37-47.3C242.74,137.28,243.48,136.89,255.76,112Z"/><path class="cls-1" d="M153.69,216a49.69,49.69,0,0,1-18-96"/></g></svg>