<svg xmlns="http://www.w3.org/2000/svg" viewBox="0 0 512 512">
    <defs>
        <style>
            .background {
                fill: #666;
                stroke: none;
            }
            
            .filled {
                fill: white;
                stroke: black;
                stroke-width: 12px;
                stroke-linecap: round;
                stroke-miterlimit: 2;
                stroke-linejoin: round;
            }

            .line-thin, .line, .line-thick, .line-extra-thick
            {
                fill: none;
                stroke: black;
                stroke-linecap: round;
                stroke-miterlimit: 2;
                stroke-linejoin: round;
            }

            .line-thin {
                stroke-width: 8px;
            }

            .line {
                stroke-width: 16px;
            }

            .line-thick {
                stroke-width: 24px;
            }

            .line-extra-thick {
                stroke-width: 32px;
            }

            .text {
                font-size: 300px;
                font-weight: 100;
                fill: black;
                stroke: black;
                font-family: Overpass-Thin, Overpass;
                letter-spacing: -0.08em;
            }
        </style>
    </defs>
    <title>Hands</title>
    <path class="filled"
        d="M173.12,307.2,127.07,102.07a29.09,29.09,0,0,1,23.53-33.6l5.91-1A29.09,29.09,0,0,1,190.1,91L221,215.09a1,1,0,0,0,2-.24V62.25a29.09,29.09,0,0,1,29-29h6a29.09,29.09,0,0,1,29,29V216a1,1,0,0,0,2,.24L320.9,90a29.09,29.09,0,0,1,33.59-23.52l5.91,1a29.09,29.09,0,0,1,23.53,33.6L362.31,223.66l-2.63,14.9a1,1,0,0,0,1.91.56l41.26-89.78A29.09,29.09,0,0,1,440,132l5.64,2.06A29.08,29.08,0,0,1,463,171.23L357.65,438.46l-11.28,11l-142.08-.8l-15.23-11.37l-8.49-28.1a48.09,48.09,0,0,0-15.38-23.12L60.46,302.6a29.1,29.1,0,0,1-3.57-40.86l3.86-4.59a29.08,29.08,0,0,1,40.85-3.58l71.52,53.63 Z" />
</svg>