<svg id="Layer_1" data-name="Layer 1" xmlns="http://www.w3.org/2000/svg" viewBox="0 0 512 512">
    <defs>
        <style>
            .filled {
                fill: white;
                stroke: black;
                stroke-linecap: round;
                stroke-miterlimit: 2;
                stroke-linejoin: round;
                stroke-width: 12px;
            }

            .filled-thick {
                fill: white;
                stroke: black;
                stroke-linecap: round;
                stroke-miterlimit: 2;
                stroke-linejoin: round;
                stroke-width: 16px;
            }

            .line-thin,
            .line,
            .line-thick,
            .line-extra-thick {
                fill: none;
                stroke: black;
                stroke-linecap: round;
                stroke-miterlimit: 2;
                stroke-linejoin: round;
            }

            .line-thin {
                stroke-width: 8px;
            }

            .line {
                stroke-width: 16px;
            }

            .line-thick {
                stroke-width: 24px;
            }

            .line-extra-thick {
                stroke-width: 32px;
            }

            .text {
                font-size: 300px;
                font-weight: 100;
                fill: black;
                stroke: black;
                font-family: Overpass-Thin, Overpass;
                letter-spacing: -0.08em;
            }
        </style>
    </defs>
    <title>Head hair</title>
    <path class="filled"
        d="M395,283s31.69,42,26,56.5c-2.77,7-28,11.5-28,11.5l-15.62,41s-7.1,42.34-18.38,46c-17.49,5.67-67.63-9.63-82.5-3-16.25,7.25-23.9,59-23.9,59L117,452l24-88l10,-150l240,0Z" />
    <path class="filled-thick"
        d="M466.5,201.5c2,2.89-66.62-16.46-64.83-13.83,9.91,14.52,32.76,45.7,46.55,65.15a1,1,0,0,1-1.42,1.37C419,232.63,367.77,223.77,344,200L251,313s-32.32-71.79-55-81c-9.22-3.75-32.82.2-39,8-17.25,21.79-16,124-16,124S75.9,243.56,85.1,204c3.74-16.09,39.9-44,39.9-44l16-11,26-12c-20.08-.26-53.47-5.54-59.16-5a1,1,0,0,1-.84-1.66C116.93,119.1,192.45,43.24,221,36c91.57-23.23,242.71,42.85,242,43l-67.77,31a1,1,0,0,0,.21,1.68L445,135l-22.8,7.6c-.61.2-11.54,5.85-11.2,6.4Z" />
    <path class="line" d="M148.76,259.62c1.37,35.8,16.87,65.17,40.91,74.05a47.89,47.89,0,0,0,20.66,2.66" />
</svg>