<svg id="Layer_1" data-name="Layer 1" xmlns="http://www.w3.org/2000/svg" viewBox="0 0 512 512"><defs><style>.cls-1{fill:#231f20;}.cls-1,.cls-3,.cls-4{stroke:#231f20;stroke-miterlimit:10;}.cls-1,.cls-3{stroke-linecap:round;stroke-width:17.89px;}.cls-2{font-size:72px;}.cls-2,.cls-5{fill:#fff;font-family:Overpass-Regular, Overpass;}.cls-3,.cls-4{fill:none;}.cls-4{stroke-width:9.29px;}.cls-5{font-size:24px;}.cls-6{letter-spacing:-0.02em;}.cls-7{letter-spacing:-0.04em;}.cls-8{letter-spacing:-0.02em;}.cls-9{letter-spacing:0em;}</style></defs><title>icon</title><path class="cls-1" d="M448,224H64V144a48.14,48.14,0,0,1,48-48H400a48.14,48.14,0,0,1,48,48Z"/><path class="cls-1" d="M448,360v8a48.14,48.14,0,0,1-48,48H112a48.14,48.14,0,0,1-48-48v-8Z"/><text class="cls-2" transform="translate(210 174)">HI!</text><line class="cls-3" x1="64" y1="224" x2="64" y2="360"/><line class="cls-3" x1="448" y1="224" x2="448" y2="360"/><path class="cls-4" d="M134.81,299.28c22.06-33.08,48.76,0,48.76,0l26.12,23.22L244.52,272S292.7,298.12,291,297.25s30.19-21.77,30.19-21.77l40.63,41.22,18.57-34.25"/><text class="cls-5" transform="translate(187 210)"><tspan class="cls-6">M</tspan><tspan class="cls-7" x="18.84" y="0">Y</tspan><tspan x="33.26" y="0"> </tspan><tspan class="cls-8" x="38.9" y="0">NA</tspan><tspan class="cls-9" x="71.23" y="0">ME IS</tspan></text></svg>