<svg xmlns="http://www.w3.org/2000/svg" viewBox="0 0 512 512"><defs><style>.cls-1,.cls-2{fill:none;stroke:#231f20;stroke-miterlimit:10;}.cls-1{stroke-width:16px;}.cls-2{stroke-width:8px;}</style></defs><title>icon</title><g id="Layer_9" data-name="Layer 9"><path class="cls-1" d="M408,184a72,72,0,0,0-72-72"/><path class="cls-1" d="M408,184a72,72,0,0,1-72,72s40-8,40-48c0-26.53-13.47-48-40-48"/><path class="cls-1" d="M136,280a72,72,0,0,1,72-72"/><path class="cls-1" d="M136,280a72,72,0,0,0,72,72s-40-8-40-48c0-26.53,13.47-48,40-48"/><path class="cls-1" d="M344,376a72,72,0,0,0-72-72"/><path class="cls-1" d="M344,376c0,39.8-32.2,56-72,56,0,0,40-8,40-48,0-26.53-13.47-32-40-32"/></g><g id="Layer_12" data-name="Layer 12"><path class="cls-2" d="M232,64a24,24,0,0,1,24-24"/><path class="cls-2" d="M280,64a24,24,0,0,0-24-24"/><path class="cls-2" d="M240,464a16,16,0,0,0,16,16"/><path class="cls-2" d="M272,464a16,16,0,0,1-16,16"/><line class="cls-2" x1="240" y1="160" x2="240" y2="304"/><line class="cls-2" x1="272" y1="160" x2="272" y2="304"/><line class="cls-2" x1="240" y1="352" x2="240" y2="432"/><line class="cls-2" x1="272" y1="352" x2="272" y2="440"/><line class="cls-2" x1="240" y1="432" x2="240" y2="464"/><line class="cls-2" x1="272" y1="432" x2="272" y2="464"/><polyline class="cls-2" points="240 112 232 80 232 64"/><polyline class="cls-2" points="272 112 280 80 280 64"/></g><g id="Layer_11" data-name="Layer 11"><line class="cls-1" x1="200" y1="112" x2="336" y2="112"/><line class="cls-1" x1="376" y1="208" x2="272" y2="208"/><line class="cls-1" x1="208" y1="208" x2="240" y2="208"/><line class="cls-1" x1="272" y1="352" x2="208" y2="352"/><line class="cls-1" x1="168" y1="304" x2="272" y2="304"/><path class="cls-1" d="M272,405.62c14.06-.12,27.94-1.68,40-5.62"/><path class="cls-1" d="M240,427.57A173.11,173.11,0,0,1,183.57,400c-5-.82-4.66-6.76.43-7.18a374,374,0,0,0,56,11"/><circle class="cls-2" cx="129.48" cy="148" r="4"/><path class="cls-1" d="M208,112c-32,0-83.61-15.9-136.92,50.36-9.54,11.87,35.4,15.87,59.32,13.91C154,174.33,184,161.67,216,160c39.95-2.08,120,0,120,0"/><line class="cls-1" x1="336" y1="256" x2="272" y2="256"/><line class="cls-1" x1="208" y1="256" x2="240" y2="256"/></g></svg>