<svg xmlns="http://www.w3.org/2000/svg" viewBox="0 0 512 512"><defs><style>.cls-1{fill:none;}.cls-1,.cls-2{stroke:#231f20;stroke-miterlimit:10;stroke-width:16px;}.cls-2{fill:#231f20;}</style></defs><title>icon</title><g id="Layer_3" data-name="Layer 3"><circle class="cls-1" cx="256" cy="103.96" r="32"/><path class="cls-2" d="M304,168c0,17.67-21.49,16-48,16s-48,1.67-48-16,21.49-32,48-32S304,150.28,304,168Z"/><circle class="cls-1" cx="112" cy="367.96" r="32"/><path class="cls-1" d="M160,432c0,17.67-21.49,16-48,16s-48,1.67-48-16,21.49-32,48-32S160,414.28,160,432Z"/><circle class="cls-1" cx="256" cy="367.96" r="32"/><path class="cls-1" d="M304,432c0,17.67-21.49,16-48,16s-48,1.67-48-16,21.49-32,48-32S304,414.28,304,432Z"/><circle class="cls-1" cx="400" cy="368" r="32"/><path class="cls-1" d="M448,432c0,17.67-21.49,16-48,16s-48,1.67-48-16,21.49-32,48-32S448,414.33,448,432Z"/><line class="cls-1" x1="256" y1="200" x2="256" y2="312"/><polyline class="cls-1" points="112 312 112 248 400 248 400 312"/></g></svg>