<svg id="Layer_1" data-name="Layer 1" xmlns="http://www.w3.org/2000/svg" viewBox="0 0 512 512"><defs><style>.cls-1,.cls-3{fill:none;}.cls-1,.cls-2,.cls-3{stroke:#231f20;stroke-linecap:round;stroke-miterlimit:10;}.cls-1,.cls-2{stroke-width:16px;}.cls-2{fill:#231f20;}.cls-3{stroke-width:8px;}</style></defs><title>icon</title><circle class="cls-1" cx="171" cy="172" r="96"/><ellipse class="cls-2" cx="336.15" cy="217.91" rx="12" ry="20" transform="translate(-20.64 400.07) rotate(-60)"/><path class="cls-3" d="M470.39,295.41s-15.14.21-35.49-11.54c-17.46-10.08-14.46-28-30.92-37.46-16.88-9.75-26.6-4.7-47.91-17h0"/><ellipse class="cls-3" cx="195.64" cy="205.5" rx="12" ry="20" transform="translate(-80.15 272.18) rotate(-60)"/><path class="cls-3" d="M329.87,283s-7.38-13.21-27.73-25c-17.47-10.09-31.44,1.45-47.9-8.05-16.89-9.75-17.37-20.69-38.68-33h0"/><ellipse class="cls-2" cx="265.21" cy="362.07" rx="12" ry="20" transform="translate(-180.95 410.71) rotate(-60)"/><path class="cls-3" d="M399.44,439.57s-4-16.17-24.34-27.92c-17.47-10.08-30.67-5.41-48.49-12s-22.59-6.88-41.48-26.07h0"/></svg>