<svg id="Layer_1" data-name="Layer 1" xmlns="http://www.w3.org/2000/svg" viewBox="0 0 512 512">
    <defs>
        <style>
            .filled {
                fill: white;
                stroke: black;
                stroke-width: 12px;
            }

            .line {
                fill: none;
                stroke: black;
                stroke-linecap: round;
                stroke-miterlimit: 2;
                stroke-width: 12px;
            }

            .line-thick {
                fill: none;
                stroke: black;
                stroke-linecap: round;
                stroke-miterlimit: 2;
                stroke-width: 24px;
            }

            .line-extra-thick {
                fill: none;
                stroke: black;
                stroke-linecap: round;
                stroke-miterlimit: 2;
                stroke-width: 32px;
            }

            .text {
                font-size: 300px;
                font-weight: 100;
                fill: black;
                stroke: black;
                font-family: Overpass-Thin, Overpass;
                letter-spacing: -0.08em;
            }

            .cls-1,
            .cls-3 {
                fill: none;
            }

            .cls-1,
            .cls-2,
            .cls-3,
            .cls-4 {
                stroke: black;
                stroke-linecap: round;
                stroke-miterlimit: 10;
            }

            .cls-1,
            .cls-2 {
                stroke-width: 16px;
            }

            .cls-2 {
                fill: black;
            }

            .cls-3 {
                stroke-width: 8px;
            }

            .cls-4 {
                stroke-width: 24px;
            }
        </style>
    </defs>
    <title>icon</title>
    <circle class="filled" cx="144" cy="144" r="96" />
    <g transform="translate(192 320) rotate(60)">
        <ellipse class="cls-2" cx="0" cy="0" rx="24" ry="16" />
        <path class="cls-3" d="M24,0c24,0,64,16,96,0c24,-12,72,-24,96,0" />
        <path class="cls-4" d="M24,0c24,4,24,4,24,4" />
    </g>
    
    <g transform="translate(224 196) rotate(30)">
        <ellipse class="cls-2" cx="0" cy="0" rx="24" ry="16" />
        <path class="cls-3" d="M24,0c24,0,64,16,96,0c24,-12,72,-24,96,0" />
        <path class="cls-4" d="M24,0c24,4,24,4,24,4" />
    </g>
    <g transform="translate(320 320) rotate(45)">
        <ellipse class="cls-2" cx="0" cy="0" rx="24" ry="16" />
        <path class="cls-3" d="M24,0c24,0,64,-16,96,0c24,12,72,24,96,0" />
        <path class="cls-4" d="M24,0c24,-4,24,-4,24,-4" />
    </g>
</svg>