<svg id="Layer_1" data-name="Layer 1" xmlns="http://www.w3.org/2000/svg" viewBox="0 0 512 512">
    <defs>
        <style>
            .filled {
                fill: white;
                stroke: black;
                stroke-width: 12px;
                stroke-linecap: round;
                stroke-miterlimit: 2;
            }
        </style>
    </defs>
    <title>icon</title>
    <path class="filled"
        d="M336,276.37c-96-72-152.81,20.33-180.33,40.05-1.67,1.2-5.17.7-3.67-.05,64-32,27.59-146.93,75.67-152,16.76-1.75,30.25,9,48,0,15.79-8,30.36-29.36,24-48-6.8-19.91-33.34-24.61-48-24-22.84,1-39.4,15.71-48,24C153,165.3,64,223.73,64,284.94c0,31.43-12.09,44.28-4.33,63.48,37.89,93.85,315.41,107.46,384,0,22.49-35.24,31.36-100.08,0-128-19-16.94-52.9-20.29-80-8-25.59,11.61-36.89,33.4-40,40Z" />
</svg>