<svg id="Layer_1" data-name="Layer 1" xmlns="http://www.w3.org/2000/svg" viewBox="0 0 512 512">
    <defs>
        <style>

            .filled {
                fill: white;
                stroke: black;
                stroke-linecap: round;
                stroke-miterlimit: 10;
                stroke-width: 16px;
            }

            .filled-black {
                fill: black;
                stroke: black;
                stroke-linecap: round;
                stroke-miterlimit: 10;
                stroke-width: 16px;
            }

            .line {
                fill: none;
                stroke: black;
                stroke-linecap: round;
                stroke-miterlimit: 2;
                stroke-width: 12px;
            }
        </style>
    </defs>
    <title>Pregnancy</title>
    <path class="filled" d="M352,216c0,53-96,136-96,136s-96-83-96-136a96,96,0,0,1,192,0Z" />
    <line class="line" x1="256" y1="448" x2="256" y2="352" />
    <path class="line" d="M427.27,180.36A61.94,61.94,0,0,0,446,136a64,64,0,0,0-128,0" />
    <ellipse class="filled-black" cx="413.63" cy="193.55" rx="19" ry="11.83"
        transform="translate(-15.71 349.17) rotate(-45)" />
    <path class="line" d="M85.73,180.36A61.94,61.94,0,0,1,67,136a64,64,0,0,1,128,0" />
    <ellipse class="filled-black" cx="99.37" cy="193.55" rx="11.83" ry="19"
        transform="translate(-107.76 126.96) rotate(-45)" />
</svg>