<svg xmlns="http://www.w3.org/2000/svg" viewBox="0 0 512 512"><defs><style>.cls-1,.cls-2{fill:none;}.cls-1,.cls-2,.cls-3{stroke:#231f20;stroke-miterlimit:10;}.cls-1,.cls-3{stroke-linecap:round;stroke-width:16px;}.cls-2{stroke-width:4px;}.cls-3,.cls-4{fill:#231f20;}</style></defs><title>icon</title><g id="Layer_1" data-name="Layer 1"><line class="cls-1" x1="208" y1="64" x2="304" y2="64"/><path class="cls-1" d="M208,66.67s48,48,96,0"/><line class="cls-1" x1="208" y1="64" x2="96" y2="96"/><line class="cls-1" x1="304" y1="64" x2="416" y2="96"/><line class="cls-1" x1="96" y1="96" x2="64" y2="192"/><line class="cls-1" x1="416" y1="96" x2="448" y2="192"/><line class="cls-1" x1="128" y1="448" x2="144" y2="192"/><line class="cls-1" x1="64" y1="192" x2="128" y2="216"/><line class="cls-1" x1="144" y1="192" x2="128" y2="216"/><line class="cls-1" x1="128" y1="448" x2="384" y2="448"/><line class="cls-1" x1="368" y1="192" x2="384" y2="440"/><line class="cls-1" x1="368" y1="192" x2="384" y2="216"/><line class="cls-1" x1="448" y1="192" x2="384" y2="216"/></g><g id="Layer_2" data-name="Layer 2"><polygon class="cls-2" points="328 320 328 232 352 232 352 184 264 184 264 232 288 232 288 288 272 304 240 304 224 288 224 232 248 232 248 184 160 184 160 232 184 232 184 320 212 348 300 348 328 320"/></g><g id="Layer_3" data-name="Layer 3"><rect class="cls-3" x="176" y="200" width="56" height="16"/><rect class="cls-3" x="200" y="228" width="8" height="80"/><rect class="cls-3" x="224" y="320" width="64" height="12"/><polygon class="cls-4" points="192 316 216 340 216 316 192 316"/><polygon class="cls-4" points="236 312 216 291 216 312 236 312"/><rect class="cls-3" x="280" y="200" width="56" height="16"/><rect class="cls-3" x="304" y="228" width="8" height="80"/><polygon class="cls-4" points="320 316 296 340 296 316 320 316"/><polygon class="cls-4" points="276 312 296 291 296 312 276 312"/></g></svg>