<svg id="Layer_1" data-name="Layer 1" xmlns="http://www.w3.org/2000/svg" viewBox="0 0 512 512">
    <defs>
        <style>
            .filled {
                fill: white;
                stroke: black;
                stroke-width: 12px;
                stroke-linecap: round;
                stroke-miterlimit: 2;
            }

            .cls-1 {
                fill: none;
                stroke: black;
                stroke-linecap: round;
                stroke-miterlimit: 10;
                stroke-width: 16px;
            }
        </style>
    </defs>
    <title>icon</title>
    <path class="filled"
        d="M130,448s-30-144-30-192c0-64,17.64-59.7,24-97.05a476.37,476.37,0,0,0,6.23-71.32,24,24,0,0,1,24-23.63H360.88a24,24,0,0,1,24,22.71,699.41,699.41,0,0,0,7.76,73.63C398.68,197.27,413,195,413,256c0,48-29,192-29,192" />
    <line class="cls-1" x1="256" y1="448" x2="256" y2="256" />
    <path class="cls-1" d="M256,256a64,64,0,0,0,64,64" />
    <path class="cls-1" d="M256,256a64,64,0,0,1-64,64" />
    <line class="cls-1" x1="130" y1="448" x2="384" y2="448" />
    
    <line class="cls-1" x1="224" y1="200" x2="200" y2="192" />
    <line class="cls-1" x1="288" y1="200" x2="312" y2="192" />
</svg>